<svg width="225" height="73" viewBox="0 0 225 73" fill="none" xmlns="http://www.w3.org/2000/svg">
<path d="M68.1874 41.4638C68.2508 40.8296 68.3566 40.1954 68.3566 39.5612C68.3988 31.6971 68.4517 23.8224 68.4094 15.9583C68.4094 14.5313 68.8006 13.9922 70.2598 14.0979C71.9726 14.2142 73.6961 14.1719 75.409 14.1297C76.3923 14.098 76.7729 14.4679 76.7624 15.4509C76.7412 18.7382 76.7835 22.0255 76.7835 25.3233C76.7941 33.9062 76.8681 42.4891 76.7624 51.0719C76.7412 52.8794 76.424 54.8243 75.6839 56.4415C74.3305 59.4117 70.9999 60.0459 68.5046 57.9425C67.4367 57.044 66.5591 55.839 65.8613 54.6235C61.8117 47.605 57.8467 40.5442 53.85 33.494C53.4482 32.7752 52.9724 32.0987 52.5389 31.4011L52.1582 31.5068C52.1265 32.0459 52.0736 32.5744 52.0736 33.1135C52.0736 41.0304 52.0736 48.9474 52.0736 56.8538C52.0736 58.101 51.4463 58.7317 50.1916 58.7458C48.4787 58.7564 46.7553 58.6612 45.0424 58.7881C43.6044 58.8938 43.1498 58.4498 43.1603 56.9806C43.2238 48.3554 43.1921 39.7197 43.1921 31.0946C43.1921 27.469 43.1815 23.8435 43.1815 20.2286C43.1815 16.3705 43.9639 14.9858 46.5438 14.2459C49.3986 13.432 53.0252 14.7956 54.5478 17.3324C55.4994 18.9285 56.3453 20.5774 57.2334 22.2157C60.5534 28.3358 63.8629 34.4453 67.1829 40.5653C67.3627 40.893 67.5847 41.189 67.7856 41.4955C67.923 41.4955 68.0499 41.4743 68.1874 41.4638Z" fill="#FECC2B"/>
<path d="M187.338 58.7563C187.941 56.8432 188.438 55.1731 188.987 53.5242C192.773 42.0768 196.558 30.64 200.364 19.2033C200.988 17.3112 201.876 15.5672 203.843 14.7004C206.941 13.3369 210.007 14.4467 211.456 17.6495C212.492 19.9432 213.221 22.3743 214.014 24.7631C217.546 35.4388 221.056 46.1146 224.567 56.8009C224.757 57.3717 224.831 57.9636 225 58.7352C222.092 58.7352 219.386 58.7775 216.689 58.6824C216.309 58.6718 215.791 58.0481 215.622 57.5936C214.67 55.0991 213.761 52.594 212.936 50.0572C212.555 48.8945 211.953 48.3449 210.684 48.3766C207.639 48.44 204.583 48.4294 201.527 48.3871C200.491 48.3766 199.984 48.8311 199.666 49.7718C198.821 52.3509 197.869 54.8983 197.034 57.4879C196.738 58.4181 196.241 58.7669 195.278 58.7563C192.72 58.7141 190.172 58.7458 187.348 58.7458L187.338 58.7563ZM206.349 27.1942C206.01 27.6593 205.852 27.7967 205.809 27.9552C204.668 32.2678 203.526 36.591 202.394 40.9035C202.162 41.7703 202.648 42.0134 203.388 42.0134C205.239 42.0134 207.099 41.9711 208.95 42.0451C210.261 42.098 210.493 41.6117 210.155 40.4279C209.055 36.591 208.03 32.7329 206.973 28.896C206.835 28.4098 206.634 27.9552 206.359 27.1942H206.349Z" fill="#FECC2B"/>
<path d="M37.6939 58.7246C34.6805 58.7246 31.9314 58.7669 29.1929 58.6718C28.8229 58.6612 28.3259 57.9953 28.1568 57.5302C27.2052 54.9828 26.2959 52.4249 25.4606 49.8458C25.1116 48.7465 24.4878 48.3449 23.3776 48.366C20.3325 48.4083 17.2768 48.4083 14.2211 48.366C13.1321 48.3554 12.5928 48.8311 12.2651 49.8352C11.4086 52.4143 10.4464 54.9511 9.59 57.5302C9.28338 58.4498 8.77586 58.788 7.81368 58.7669C5.29723 58.7141 2.78078 58.7458 0 58.7458C0.3172 57.6042 0.53924 56.6635 0.845866 55.7333C4.8743 43.5672 8.90274 31.4117 12.9629 19.2561C13.6713 17.1315 14.6652 15.1972 17.0653 14.489C20.0364 13.6011 22.6163 14.6264 23.9909 17.4592C24.7521 19.0341 25.2597 20.7359 25.8201 22.406C29.5313 33.6208 33.2214 44.8356 36.9115 56.061C37.1758 56.8537 37.3873 57.6676 37.6939 58.7246ZM18.9051 27.1942C18.6196 27.6593 18.4187 27.8707 18.3553 28.1138C17.2345 32.3841 16.1349 36.665 15.0141 40.9353C14.7815 41.8337 15.2467 42.0345 15.9869 42.0345C17.9324 42.0345 19.8884 42.0345 21.8339 42.0557C22.9335 42.0663 23.0816 41.5906 22.7961 40.6182C21.6647 36.6438 20.5968 32.6589 19.4866 28.674C19.3703 28.2406 19.1589 27.839 18.9051 27.1942Z" fill="#FECC2B"/>
<path d="M162.565 34.2127C164.7 33.1663 166.667 32.3101 168.528 31.2637C170.452 30.1855 172.281 28.9594 172.673 26.486C173.053 24.0655 171.372 21.6238 168.94 21.4758C166.371 21.3173 163.791 21.423 161.222 21.423C160.122 21.423 160.069 22.1735 160.069 22.9979C160.09 33.7265 160.09 44.4551 160.143 55.1731C160.164 58.7458 160.228 58.7458 156.612 58.7564C155.565 58.7564 154.508 58.7352 153.461 58.7881C152.52 58.8409 152.213 58.4498 152.224 57.5302C152.266 55.1943 152.224 52.8583 152.224 50.5223C152.224 39.8466 152.224 29.1602 152.224 18.4845C152.224 15.9266 152.774 15.2078 155.311 14.7004C156.379 14.489 157.489 14.4256 158.578 14.415C162.343 14.3939 166.117 14.4785 169.881 14.415C177.441 14.2776 181.956 20.2814 180.106 27.9975C179.165 31.9085 176.923 34.9103 173.117 36.4959C171.954 36.9821 171.954 37.5846 172.377 38.5887C174.946 44.6454 177.473 50.7126 180.011 56.7798C180.243 57.3294 180.423 57.9108 180.719 58.7246C177.991 58.7246 175.485 58.7458 172.979 58.6929C172.694 58.6929 172.281 58.323 172.165 58.027C168.951 50.1312 165.779 42.2248 162.543 34.2022L162.565 34.2127Z" fill="#FECC2B"/>
<path d="M145.162 36.8129C145.162 40.4385 145.151 44.0534 145.162 47.6789C145.183 52.7208 142.56 56.6106 137.792 58.2067C133.658 59.5914 129.428 59.5279 125.263 58.323C121.202 57.1603 117.142 52.6786 117.385 47.4675C117.724 40.2905 117.692 33.0711 117.407 25.8835C117.206 20.8839 121.065 16.6453 124.544 15.5143C129.767 13.8231 135.106 13.4531 140.012 16.4445C143.385 18.4951 145.468 21.4758 145.214 25.799C144.992 29.4562 145.172 33.1346 145.172 36.8024L145.162 36.8129ZM137.094 36.9292H137.115C137.115 33.3988 137.105 29.879 137.115 26.3486C137.126 24.2346 136.1 22.8393 134.25 21.9726C132.209 21.0213 130.2 21.0953 128.191 22.1206C126.552 22.9556 125.643 24.2346 125.643 26.0949C125.643 33.2931 125.622 40.4913 125.633 47.6895C125.633 49.0742 126.246 50.1629 127.377 50.9662C129.259 52.298 131.31 52.594 133.499 51.9281C136.026 51.1565 137.084 49.7295 137.094 47.087C137.115 43.7046 137.094 40.3222 137.094 36.9292Z" fill="#FECC2B"/>
<path d="M110.365 46.4845C110.598 51.6321 108.06 58.0693 99.8978 58.9889C95.0869 59.5279 90.4664 58.788 86.4485 55.8073C83.9955 53.9892 82.8324 51.5793 82.8853 48.4294C83.0016 40.7555 83.0333 33.0817 82.8853 25.4079C82.8113 21.6344 84.3867 18.9496 87.4636 17.1104C92.4436 14.1402 97.7937 13.5483 103.281 15.4086C107.468 16.8356 110.461 21.423 110.461 25.8624C110.461 26.8348 110.08 27.0991 109.192 27.0779C107.669 27.0356 106.136 27.0145 104.613 27.0885C103.535 27.1413 103.049 26.7925 102.731 25.6932C101.463 21.4124 95.8165 19.7846 92.507 22.7971C91.714 23.5158 91.0479 24.8159 91.0268 25.8624C90.8999 33.1557 90.921 40.449 91.0056 47.7423C91.0162 48.6514 91.4814 49.7401 92.1052 50.4166C95.2138 53.8095 101.367 52.4354 102.7 48.0383C103.08 46.7699 103.672 46.3999 104.899 46.4634C106.696 46.5479 108.494 46.4845 110.376 46.4845H110.365Z" fill="#FECC2B"/>
<path d="M31.106 11.392C28.4098 11.392 25.9885 11.4343 23.5672 11.3603C23.1231 11.3498 22.6156 10.9692 22.2773 10.6204C21.3891 9.70083 20.5432 8.71781 19.7397 7.72423C19.137 6.98433 18.5237 6.66723 18.0162 7.70309C15.6266 12.5759 11.3022 11.4555 6.9248 11.2758C7.90812 9.88052 8.74342 8.65439 9.621 7.45998C11.207 5.31426 12.7719 3.14741 14.453 1.08625C14.8654 0.568318 15.6689 0.145514 16.3245 0.0926641C18.122 -0.0447464 19.9511 -0.0130305 21.7486 0.0820998C22.2878 0.11381 22.9857 0.420342 23.3135 0.843144C25.7982 4.03529 28.2195 7.28029 30.6513 10.5147C30.7888 10.6944 30.8628 10.9164 31.106 11.4026V11.392Z" fill="#FECC2B"/>
<path d="M156.221 68.4386C156.401 69.2842 156.95 70.3306 156.644 70.912C156.306 71.5567 155.185 72.0852 154.371 72.1381C151.199 72.3389 151.199 72.2649 151.177 69.115C151.177 68.5443 151.103 67.9629 151.177 67.4133C151.283 66.6311 151.484 65.1936 151.664 65.1936C153.091 65.1724 154.677 65.0879 155.904 65.6798C157.109 66.2506 156.337 67.4873 155.682 68.3751C155.861 68.3963 156.031 68.4174 156.21 68.4386H156.221ZM153.768 71.4299C154.688 71.3982 155.735 71.3242 155.682 70.0981C155.629 68.7979 154.487 68.8719 153.535 68.8085C152.626 68.7557 152.161 69.0093 152.161 70.0663C152.161 71.2819 152.742 71.5356 153.778 71.4193L153.768 71.4299ZM153.599 68.0475C153.683 68.1532 153.768 68.2589 153.852 68.3751C154.371 67.9206 155.269 67.5084 155.333 67.001C155.449 65.944 154.476 65.8489 153.62 65.8595C152.911 65.87 152.182 65.7749 152.161 66.8848C152.14 67.9735 152.7 68.1743 153.599 68.0475Z" fill="#FECC2B"/>
<path d="M91.3752 72.4656C90.339 72.4022 89.0068 72.4022 87.6957 72.2225C85.9088 71.99 84.9149 70.2459 85.1898 68.0474C85.4542 65.9228 86.723 64.7918 88.7002 64.9081C90.6034 65.0138 91.8193 66.4619 91.7876 68.6499C91.7876 69.1678 91.5867 69.6752 91.5338 70.1931C91.4598 70.9224 91.4281 71.6517 91.3752 72.4656ZM88.6579 70.5947C89.3557 70.4256 90.0536 70.4679 90.3602 70.1402C91.058 69.4003 90.8148 67.3815 90.043 66.557C89.324 65.7959 88.4993 65.5 87.4948 66.0813C86.3952 66.7261 85.8877 68.3856 86.4058 69.8654C86.7864 70.9436 87.4737 71.6095 88.8059 71.3981C88.7319 71.0281 88.679 70.7216 88.6579 70.5947Z" fill="#FECC2B"/>
<path d="M26.1684 67.6774C26.0944 69.1572 26.0204 70.637 25.957 72.1169C25.7561 72.1169 25.5552 72.1169 25.3543 72.1063C25.312 71.4932 25.2274 70.8802 25.2274 70.2777C25.2274 68.9459 25.2063 67.614 25.2803 66.2822C25.3014 65.8911 25.5975 65.5106 25.7666 65.1301C26.1156 65.4049 26.5596 65.6057 26.7923 65.9651C27.5747 67.1912 28.2937 68.4596 29.0232 69.7175C29.1818 69.6963 29.3299 69.6752 29.4885 69.654C29.5307 68.5759 29.5307 67.4977 29.6259 66.4196C29.6576 65.9968 29.8797 65.5951 30.0171 65.1935C30.2074 65.6057 30.5352 66.0074 30.5564 66.4196C30.6198 67.984 30.5987 69.5589 30.5458 71.1233C30.5352 71.4826 30.2392 71.8209 30.07 72.1697C29.7211 71.9689 29.2453 71.8526 29.0444 71.5566C28.1985 70.2565 27.4372 68.9036 26.6442 67.5717C26.4856 67.6034 26.327 67.6457 26.1684 67.6774Z" fill="#FECC2B"/>
<path d="M51.7982 69.0621C52.4644 70.0768 53.0565 70.9753 53.6486 71.8632C53.5428 72.0006 53.4371 72.138 53.3314 72.2754C52.9084 71.99 52.4221 71.7786 52.0943 71.4192C51.5868 70.859 51.2696 70.1191 50.7303 69.6012C50.4026 69.2841 49.821 69.0727 49.377 69.1044C49.1761 69.115 48.9646 69.8337 48.88 70.2671C48.7637 70.8802 48.7637 71.5144 48.7214 72.1486C48.5628 72.1697 48.4042 72.2014 48.2562 72.2226C48.1187 71.8949 47.8755 71.5778 47.8755 71.2501C47.8544 69.5378 47.9178 67.8149 47.8755 66.1025C47.865 65.2781 48.2033 64.9821 48.9752 65.0244C49.7893 65.0666 50.5929 65.0984 51.407 65.1195C52.2846 65.1406 53.1939 65.3837 53.2151 66.3456C53.2362 67.0855 52.7604 67.8466 52.4432 68.5759C52.3692 68.7662 52.0837 68.8613 51.7982 69.0621ZM50.2651 68.2905C51.1004 68.1742 52.2635 68.3962 52.2635 67.0855C52.2635 65.9228 51.2696 65.9122 50.392 65.8911C49.5884 65.87 48.8694 65.8594 48.8589 67.001C48.8589 68.0051 49.3135 68.3751 50.2651 68.2799V68.2905Z" fill="#FECC2B"/>
<path d="M177.832 68.5442C177.832 67.9734 177.832 67.4026 177.832 66.8318C177.832 65.6128 178.466 65.0173 179.735 65.0455C182.896 65.1195 184.535 68.1214 182.939 70.9225C182.336 71.99 181.332 72.1908 180.253 72.1803C177.419 72.1591 177.779 72.4974 177.79 69.8232C177.79 69.4004 177.79 68.967 177.79 68.5442H177.821H177.832ZM182.421 68.1848C182.347 67.9417 182.315 67.075 181.892 66.7684C181.236 66.2928 180.306 66.0919 179.481 66.0285C179.291 66.018 178.889 67.0221 178.826 67.5823C178.72 68.4702 178.847 69.3792 178.826 70.2777C178.805 71.1444 179.228 71.4404 180.042 71.4404C181.649 71.4404 182.431 70.5314 182.421 68.1742V68.1848Z" fill="#FECC2B"/>
<path d="M46.216 68.7027C46.1948 71.0704 45.0846 72.2754 42.9382 72.286C40.8553 72.286 39.5759 70.9118 39.6182 68.7133C39.6605 66.3562 40.9187 64.9292 42.9488 64.9186C45.0317 64.9186 46.2371 66.3033 46.216 68.7027ZM45.2432 68.6182C45.2432 67.0538 44.281 65.8171 43.0228 65.7748C41.7752 65.7325 40.6861 67.0644 40.665 68.6604C40.6438 70.1825 41.6483 71.4404 42.9065 71.4826C44.2176 71.5249 45.2326 70.2882 45.2432 68.6182Z" fill="#FECC2B"/>
<path d="M192.509 68.6182C192.509 68.3328 192.424 68.0051 192.519 67.7726C192.911 66.8636 191.494 65.1724 193.651 65.0455C196.812 64.8764 197.838 65.5423 198.144 67.8783C198.589 71.2924 196.336 73.195 193.027 72.1486C192.784 72.0746 192.53 71.6201 192.498 71.3241C192.435 70.4257 192.477 69.5166 192.477 68.6182H192.509ZM193.524 68.5653C193.524 69.041 193.566 69.5166 193.524 69.9923C193.376 71.377 194.158 71.6095 195.279 71.451C196.886 71.2184 197.648 69.3792 196.992 67.3286C196.654 66.2611 195.617 65.7114 194.37 65.9228C193.207 66.1131 193.598 67.0221 193.534 67.7197C193.513 68.0051 193.534 68.2905 193.534 68.5759L193.524 68.5653Z" fill="#FECC2B"/>
<path d="M108.08 66.8953C107.7 66.6628 107.329 66.388 106.928 66.2188C106.431 66.018 105.881 65.7749 105.373 65.8066C105.056 65.8278 104.591 66.2928 104.538 66.6099C104.496 66.8742 104.887 67.3604 105.194 67.519C105.828 67.8361 106.536 67.9946 107.213 68.2272C108.239 68.576 108.81 69.2524 108.672 70.3729C108.545 71.4616 107.848 72.0852 106.801 72.2226C105.595 72.3917 104.379 72.36 103.586 71.2185C103.417 70.9754 103.512 70.5314 103.491 70.1826C103.798 70.2883 104.147 70.3517 104.411 70.5314C104.718 70.7322 104.908 71.155 105.225 71.2925C106.103 71.6518 107.002 71.5884 107.435 70.6477C107.9 69.633 107.023 69.3476 106.304 69.0728C105.733 68.8508 104.993 68.8508 104.58 68.4703C104.073 68.0157 103.449 67.2124 103.534 66.6734C103.639 66.0497 104.379 65.2993 105.014 65.0561C106.505 64.4748 107.805 65.1724 108.07 66.8848L108.08 66.8953Z" fill="#FECC2B"/>
<path d="M78.5176 69.7492C79.0991 70.2777 79.374 70.6793 79.7441 70.8273C80.3996 71.0916 81.1186 71.3241 81.8165 71.3135C82.1019 71.3135 82.546 70.6793 82.6095 70.2883C82.6518 69.9923 82.2817 69.4849 81.9645 69.3158C81.4358 69.0304 80.8014 68.9459 80.2093 68.745C79.2366 68.4174 78.4541 67.8783 78.5599 66.7156C78.6656 65.5 79.522 65.0455 80.6217 64.9292C82.1865 64.7601 83.0853 65.3309 83.3707 66.9481C82.8526 66.6733 82.5143 66.4513 82.1442 66.3139C81.605 66.1131 81.034 65.8488 80.4736 65.8488C80.1776 65.8488 79.6912 66.3351 79.6383 66.6522C79.5961 66.9164 80.0084 67.3815 80.3256 67.5506C80.9071 67.8466 81.5733 67.984 82.2077 68.1954C83.3179 68.5548 83.8465 69.3052 83.7197 70.4679C83.5928 71.5884 82.8421 72.1063 81.8059 72.2648C79.797 72.5819 78.5916 71.8315 78.5176 69.7598V69.7492Z" fill="#FECC2B"/>
<path d="M122.481 67.1067C121.858 66.705 121.562 66.4408 121.213 66.314C120.642 66.1131 120.028 65.8912 119.436 65.9123C119.183 65.9123 118.939 66.4936 118.686 66.8002C119.204 67.1701 119.68 67.5929 120.24 67.8889C120.695 68.132 121.266 68.1426 121.731 68.3751C122.915 68.9565 123.348 70.7745 122.323 71.4721C121.519 72.0218 120.314 72.2015 119.288 72.1909C118.284 72.1909 117.649 71.3876 117.639 70.0452C117.988 70.2566 118.337 70.4997 118.707 70.69C119.278 70.9753 119.859 71.4087 120.441 71.4087C120.864 71.4087 121.53 70.8696 121.625 70.4574C121.71 70.1086 121.223 69.485 120.821 69.2101C120.42 68.9247 119.828 68.9353 119.331 68.7662C118.305 68.4174 117.491 67.8572 117.66 66.6205C117.829 65.4155 118.728 65.0033 119.817 64.9293C121.371 64.8236 122.143 65.3415 122.471 67.1067H122.481Z" fill="#FECC2B"/>
<path d="M204.498 68.819C203.737 68.819 202.965 68.8613 202.204 68.819C201.136 68.745 200.946 69.337 200.935 70.2354C200.914 71.1973 201.379 71.4827 202.257 71.4404C203.103 71.3981 203.949 71.4404 204.794 71.4404C204.826 71.5989 204.858 71.7575 204.89 71.916C204.382 72.0112 203.875 72.1803 203.357 72.2014C199.899 72.3388 199.899 72.3283 199.899 68.9459C199.899 68.7133 199.878 68.4702 199.899 68.2377C199.994 67.2229 199.931 65.4049 200.237 65.3415C201.686 65.035 203.23 65.2041 204.742 65.2041C204.742 65.3943 204.763 65.5846 204.773 65.7643C203.949 65.8277 203.113 65.796 202.32 65.9757C201.834 66.092 201.168 66.4302 201.02 66.8319C200.755 67.5189 201.052 68.132 202.014 68.0791C202.838 68.0368 203.663 68.0791 204.488 68.0791C204.488 68.3328 204.498 68.5971 204.509 68.8507L204.498 68.819Z" fill="#FECC2B"/>
<path d="M61.2821 72.2754C59.6855 71.99 59.5269 70.3411 57.9092 70.32C56.2175 70.2988 56.1646 72.0429 54.5469 72.3071C55.0544 70.933 55.4773 69.8126 55.8897 68.6922C56.2492 67.7092 56.5875 66.7156 56.9893 65.7537C57.3382 64.8975 58.2687 64.6967 58.5965 65.4366C59.5269 67.5823 60.3199 69.802 61.2821 72.286V72.2754ZM56.6192 69.6329C57.592 69.5801 58.237 69.5483 59.1146 69.5061C58.7022 68.3751 58.3956 67.5083 58.0784 66.6522C57.9303 66.6733 57.7929 66.6839 57.6449 66.705C57.3488 67.5612 57.0422 68.4068 56.6192 69.6329Z" fill="#FECC2B"/>
<path d="M23.8642 72.1909C22.828 71.9266 17.996 71.9161 17.3193 72.2437C17.4991 71.5884 17.5942 71.1233 17.7528 70.6899C18.3344 69.0833 18.9159 67.4661 19.5609 65.8806C19.6983 65.5529 20.0895 65.1935 20.4279 65.1195C20.6817 65.0561 21.1997 65.3521 21.3055 65.6163C22.1619 67.7092 22.9549 69.8443 23.8642 72.1909ZM21.3795 69.6964C21.4852 69.5589 21.591 69.411 21.6861 69.2735C21.3161 68.4068 20.9566 67.5295 20.5865 66.6627C20.4067 66.6839 20.2376 66.7156 20.0578 66.7367C19.8887 67.6141 19.7195 68.5019 19.5503 69.3792C20.153 69.4849 20.7662 69.5907 21.3689 69.6964H21.3795Z" fill="#FECC2B"/>
<path d="M94.1452 65.1089C94.2193 65.5211 94.3461 65.9439 94.3567 66.3667C94.399 67.5083 94.3356 68.6499 94.4096 69.7808C94.4836 70.8061 95.044 71.4721 96.1542 71.4615C97.2644 71.4615 97.6133 70.6899 97.645 69.7491C97.6873 68.5124 97.6344 67.2757 97.7085 66.0496C97.7296 65.7325 98.0785 65.4366 98.2794 65.13C98.4169 65.4366 98.6812 65.7431 98.6918 66.0496C98.7235 67.4237 98.7552 68.8084 98.6706 70.1825C98.5755 71.694 97.8353 72.2754 96.207 72.2965C94.473 72.3176 93.5849 71.7469 93.4897 70.2776C93.384 68.5653 93.4686 66.8529 93.4686 65.13C93.7012 65.13 93.9338 65.1195 94.1664 65.1089H94.1452Z" fill="#FECC2B"/>
<path d="M132.315 72.1381C130.835 72.1381 129.344 72.1698 127.863 72.0958C127.705 72.0958 127.44 71.5144 127.43 71.2079C127.388 69.4956 127.388 67.7726 127.44 66.0603C127.451 65.7221 127.789 65.1407 128.001 65.1196C129.386 65.035 130.782 65.0773 132.167 65.0773C132.177 65.2993 132.188 65.5107 132.198 65.7326C131.342 65.796 130.486 65.8806 129.629 65.9017C128.931 65.9229 128.413 66.0286 128.413 66.9059C128.413 67.6564 128.604 68.0897 129.46 68.0475C130.274 68.0052 131.088 68.0475 131.902 68.0475C131.902 68.2694 131.902 68.4808 131.913 68.7028C131.173 68.7345 130.433 68.8296 129.703 68.7979C128.804 68.7662 128.392 69.0728 128.382 70.0135C128.382 70.9331 128.614 71.4827 129.661 71.4299C130.538 71.3876 131.416 71.4299 132.283 71.4299C132.283 71.673 132.294 71.9161 132.304 72.1486L132.315 72.1381Z" fill="#FECC2B"/>
<path d="M116.37 72.2861C114.763 72.0324 114.731 70.2777 113.028 70.2989C111.411 70.32 111.263 71.9055 109.677 72.3389C110.639 69.781 111.432 67.5824 112.341 65.4367C112.405 65.2781 113.684 65.331 113.779 65.5424C114.678 67.6564 115.45 69.8338 116.38 72.2966L116.37 72.2861ZM113.187 66.6311C113.039 66.6311 112.891 66.6522 112.732 66.6628C112.458 67.5612 112.172 68.4491 111.834 69.5378H114.244C113.853 68.4597 113.515 67.5401 113.187 66.6311Z" fill="#FECC2B"/>
<path d="M76.4339 68.6922C75.7044 68.7344 74.9748 68.8401 74.2558 68.7979C73.3148 68.7556 72.839 69.0621 72.839 70.0768C72.839 71.0387 73.2091 71.4826 74.203 71.4192C75.0806 71.3664 75.9581 71.4192 76.8357 71.4192C76.8569 71.6095 76.878 71.7997 76.8992 71.99C76.3176 72.064 75.7467 72.1803 75.1651 72.1908C71.9297 72.2331 71.9297 72.2225 71.8768 69.0621C71.8663 68.058 71.8345 67.0644 71.8768 66.0602C71.898 65.7431 72.1412 65.1618 72.3103 65.1618C73.7589 65.0878 75.218 65.1195 76.6666 65.1195C76.6771 65.3203 76.6877 65.5211 76.7089 65.7114C76.2013 65.7854 75.6727 65.8065 75.1757 65.9439C74.351 66.1553 72.9342 65.2463 72.8919 66.9798C72.839 68.7979 74.2981 67.836 75.1017 68.0474C75.5246 68.1531 75.9793 68.132 76.4128 68.1637C76.4128 68.3434 76.4128 68.523 76.4128 68.7027L76.4339 68.6922Z" fill="#FECC2B"/>
<path d="M184.482 72.2648C185.423 69.7914 186.164 67.6457 187.062 65.5634C187.39 64.7918 188.257 64.7601 188.595 65.5317C189.515 67.6352 190.266 69.8126 191.186 72.2437C189.61 72.0323 189.452 70.2988 187.792 70.3094C186.153 70.32 186.1 72.0534 184.482 72.2648ZM188.109 66.6839C187.929 66.6839 187.739 66.6839 187.559 66.6944C187.274 67.5929 186.978 68.4913 186.639 69.5589H189.082C188.722 68.4808 188.416 67.5823 188.109 66.6839Z" fill="#FECC2B"/>
<path d="M148.872 65.1301C148.957 65.4155 149.094 65.7009 149.105 65.9863C149.126 67.2759 149.137 68.5654 149.105 69.8444C149.052 71.599 148.375 72.2543 146.652 72.286C144.781 72.3178 143.977 71.7047 143.871 69.9924C143.787 68.6182 143.797 67.2336 143.829 65.8489C143.829 65.6058 144.146 65.3732 144.315 65.1301C144.474 65.3732 144.749 65.6164 144.759 65.87C144.812 67.0645 144.77 68.2483 144.812 69.4427C144.855 70.542 145.225 71.451 146.536 71.451C147.921 71.451 148.111 70.468 148.111 69.3793C148.111 68.3329 148.111 67.2758 148.175 66.2294C148.196 65.8383 148.386 65.4578 148.492 65.0667C148.619 65.0773 148.746 65.0879 148.872 65.109V65.1301Z" fill="#FECC2B"/>
<path d="M65.0473 68.6393C65.0473 68.0686 65.0473 67.4978 65.0473 66.9376C65.0473 65.9651 64.7407 64.9504 66.4218 65.0138C69.3401 65.1195 70.1013 65.4578 70.1331 67.1278C70.1542 68.5865 69.5092 69.2841 67.7646 69.2418C66.3584 69.2101 65.8826 69.7069 66.0306 71.0599C66.0623 71.3981 65.7769 71.7786 65.6394 72.138C65.4385 71.7786 65.1213 71.4298 65.079 71.0599C64.9944 70.2671 65.0473 69.4532 65.0579 68.6499L65.0473 68.6393ZM66.0729 67.2547C65.9355 68.1637 66.3055 68.6076 67.2465 68.5125C68.1136 68.4174 69.0863 68.3434 69.0334 67.1807C68.9911 66.1977 68.2087 65.9334 67.31 65.8911C66.2844 65.8383 65.9355 66.3139 66.0623 67.2652L66.0729 67.2547Z" fill="#FECC2B"/>
<path d="M37.6937 66.9587C37.3025 66.7367 36.9324 66.4725 36.52 66.3139C36.0231 66.1237 35.4204 65.796 34.9763 65.9229C33.7498 66.2717 33.3903 67.3498 33.348 68.5019C33.3058 69.6435 33.5595 70.7216 34.6909 71.2924C35.5367 71.7152 36.224 71.377 36.8055 70.6582C37.017 70.394 37.4611 70.32 37.7994 70.1614C37.7148 70.5737 37.7571 71.2184 37.5139 71.3453C36.7632 71.7575 35.9174 72.1803 35.0821 72.2332C33.8133 72.2966 32.9463 71.4721 32.555 70.2883C32.0264 68.7028 32.1638 67.1278 33.2846 65.8489C34.1305 64.8764 35.3464 64.6227 36.5518 65.1512C37.1333 65.4049 37.5774 65.9546 38.0849 66.3774C37.958 66.5676 37.8206 66.7579 37.6937 66.9587Z" fill="#FECC2B"/>
<path d="M167.386 69.2207C167.344 65.9017 169.342 64.2317 171.732 65.1618C172.07 65.2993 172.451 65.5106 172.641 65.796C172.811 66.0392 172.747 66.4514 172.779 66.7791C172.483 66.7156 172.092 66.7579 171.901 66.5782C171.225 65.944 170.548 65.4789 169.628 66.0391C168.486 66.7368 168.211 67.8995 168.465 69.0305C168.655 69.8655 169.216 70.7957 169.892 71.2607C170.241 71.4933 171.225 70.8168 171.912 70.542C172.229 70.4152 172.536 70.2672 172.853 70.1298C172.821 70.5103 172.906 70.9648 172.726 71.2396C171.679 72.8251 168.824 72.5926 167.904 70.8274C167.587 70.2143 167.471 69.485 167.397 69.2207H167.386Z" fill="#FECC2B"/>
<path d="M136.998 68.6076C136.998 68.4173 136.998 68.2271 136.998 68.0368C136.988 64.9609 137.907 64.2527 140.879 65.2569C141.397 65.426 141.978 66.2505 142.01 66.8001C142.042 67.4872 141.587 68.2271 141.227 68.8824C141.111 69.0938 140.625 69.2206 140.329 69.1995C138.732 69.0938 137.802 69.5906 138.024 71.3981C138.045 71.5989 137.675 71.8526 137.495 72.0746C137.336 71.8209 137.072 71.5672 137.051 71.3029C136.998 70.4045 137.03 69.506 137.03 68.6076C137.03 68.6076 137.019 68.6076 137.009 68.6076H136.998ZM139.525 68.7767C140.033 68.2799 140.91 67.8254 140.974 67.2758C141.09 66.261 140.181 65.9334 139.229 65.8911C138.246 65.8488 138.045 66.409 138.045 67.2335C138.045 68.0791 138.288 68.6287 139.515 68.7767H139.525Z" fill="#FECC2B"/>
<path d="M159.625 65.2041C159.625 66.2082 159.625 67.2018 159.625 68.206C159.639 70.2425 160.644 71.3206 162.638 71.4404C162.818 71.451 162.987 71.525 163.167 71.5672C163.188 71.7152 163.199 71.8632 163.22 72.0112C162.564 72.0746 161.909 72.1697 161.253 72.1909C158.092 72.2543 158.694 72.4023 158.652 69.6858C158.631 68.5442 158.652 67.4026 158.684 66.2611C158.694 65.8911 158.832 65.5317 158.906 65.1724C159.149 65.1829 159.392 65.2041 159.636 65.2146L159.625 65.2041Z" fill="#FECC2B"/>
<path d="M174.947 68.6499C174.947 67.6986 174.915 66.7578 174.968 65.8171C174.978 65.574 175.295 65.3626 175.475 65.1301C175.634 65.3732 175.94 65.6057 175.94 65.8488C175.983 67.688 175.983 69.5378 175.94 71.3875C175.94 71.6412 175.644 71.8949 175.475 72.138C175.285 71.8737 174.957 71.6201 174.936 71.3452C174.862 70.4468 174.915 69.5483 174.915 68.6499H174.947Z" fill="#FECC2B"/>
<path d="M164.953 72.1803C164.869 71.8844 164.721 71.599 164.721 71.303C164.71 69.5484 164.7 67.7938 164.763 66.0391C164.774 65.7115 165.102 65.4049 165.292 65.0878C165.429 65.3944 165.694 65.6903 165.694 65.9969C165.736 67.6986 165.725 69.411 165.694 71.1127C165.694 71.4827 165.524 71.8421 165.429 72.2015C165.271 72.2015 165.112 72.1803 164.953 72.1698V72.1803Z" fill="#FECC2B"/>
<path d="M100.996 72.1909C100.89 71.8738 100.711 71.5673 100.711 71.2502C100.679 69.4956 100.668 67.7304 100.711 65.9757C100.711 65.6692 101.091 65.3732 101.292 65.0667C101.44 65.3732 101.704 65.6692 101.715 65.9757C101.757 67.593 101.768 69.2102 101.736 70.8274C101.736 71.2819 101.525 71.7364 101.408 72.2015C101.271 72.2015 101.133 72.2015 100.985 72.2015L100.996 72.1909Z" fill="#FECC2B"/>
</svg>
