<svg width="1916" height="55" viewBox="0 0 1916 55" fill="none" xmlns="http://www.w3.org/2000/svg">
<line opacity="0.6" y1="27" x2="908" y2="27" stroke="#FECC2B" stroke-dasharray="2 2"/>
<path d="M943.903 40.109C945.374 41.0651 946.812 42.001 948.327 42.983C948.105 43.1529 947.941 43.2882 947.769 43.4092C947.415 43.6597 947.412 43.7058 947.723 44.0254C949.672 46.024 951.983 46.6287 954.656 45.8281C955.731 45.5056 956.758 45.0823 957.563 44.2529C958.051 43.749 958.35 43.1615 958.385 42.4531C958.419 41.7677 958.451 41.0794 958.454 40.3912C958.454 40.0917 958.551 39.988 958.839 40.0283C958.954 40.0456 959.072 40.037 959.19 40.0341C959.802 40.0255 959.808 39.9189 959.808 40.6705C959.811 44.6964 959.816 48.7194 959.819 52.7452C959.819 52.9468 959.819 53.1484 959.819 53.4623C958.891 52.4659 957.867 51.8208 956.763 51.2996C955.116 50.5221 953.366 50.0441 951.627 49.5228C949.744 48.9613 947.927 48.2442 946.372 46.9944C945.742 46.4876 945.167 45.926 944.794 45.1946C944.659 44.9297 944.431 44.9383 944.196 44.9412C943.316 44.9556 943.477 44.9498 943.523 44.2356C943.609 42.9398 943.742 41.6496 943.854 40.3566C943.859 40.2933 943.88 40.2328 943.908 40.1061L943.903 40.109Z" fill="white"/>
<path d="M960.808 53.3011C960.794 53.062 960.776 52.8979 960.776 52.7366C960.776 48.7511 960.779 44.7627 960.782 40.7771C960.782 40.6216 960.776 40.4632 960.799 40.3106C960.811 40.2328 960.88 40.1061 960.929 40.1033C961.262 40.086 961.599 40.0773 961.929 40.1119C961.984 40.1177 962.05 40.3423 962.056 40.4661C962.084 41.114 962.099 41.762 962.113 42.4099C962.136 43.4466 962.662 44.227 963.467 44.7771C965.177 45.9462 967.083 46.4646 969.144 46.0845C970.536 45.8282 971.645 45.0132 972.597 43.9823C972.778 43.7864 972.755 43.6136 972.559 43.4524C972.47 43.3775 972.375 43.3113 972.283 43.2364C972.206 43.173 972.128 43.1039 971.993 42.9887C973.393 42.0471 974.761 41.1284 976.181 40.1752C976.23 40.3855 976.27 40.4949 976.279 40.6072C976.374 41.9146 976.454 43.222 976.561 44.5294C976.587 44.8462 976.475 44.9758 976.176 44.9268C975.655 44.8433 975.394 45.0823 975.106 45.52C974.477 46.4761 973.62 47.2076 972.614 47.7921C971.634 48.3623 970.619 48.8346 969.553 49.1974C968.699 49.4912 967.822 49.7216 966.965 50.0067C964.982 50.6604 963.021 51.3601 961.403 52.7539C961.219 52.9123 961.049 53.0822 960.808 53.3068V53.3011Z" fill="white"/>
<path d="M948.249 29.7592C948.266 29.5864 948.295 29.4136 948.295 29.2408C948.306 27.0983 948.32 24.9529 948.309 22.8104C948.309 22.4216 948.415 22.2747 948.812 22.3035C949.278 22.3352 949.746 22.3237 950.212 22.3122C950.479 22.3035 950.583 22.4043 950.58 22.6722C950.574 23.5677 950.586 24.4633 950.586 25.3618C950.588 27.7002 950.609 30.0385 950.58 32.3768C950.574 32.8693 950.488 33.3992 950.287 33.8398C949.919 34.649 949.013 34.8217 948.335 34.2487C948.044 34.0039 947.806 33.6756 947.616 33.3444C946.515 31.4323 945.437 29.5086 944.351 27.5879C944.241 27.392 944.112 27.2077 943.994 27.0177L943.891 27.0465C943.882 27.1933 943.868 27.3373 943.868 27.4842C943.868 29.6411 943.868 31.798 943.868 33.9521C943.868 34.2919 943.697 34.4637 943.356 34.4675C942.89 34.4704 942.422 34.4445 941.956 34.4791C941.565 34.5078 941.442 34.3869 941.444 33.9866C941.462 31.6368 941.453 29.284 941.453 26.9342C941.453 25.9464 941.45 24.9587 941.45 23.9738C941.45 22.9227 941.663 22.5454 942.364 22.3439C943.14 22.1221 944.126 22.4936 944.54 23.1847C944.799 23.6196 945.029 24.0688 945.27 24.5152C946.173 26.1825 947.073 27.847 947.975 29.5144C948.024 29.6037 948.085 29.6843 948.139 29.7678C948.177 29.7678 948.211 29.762 948.249 29.7592Z" fill="white"/>
<path d="M980.643 34.4703C980.806 33.9491 980.942 33.4941 981.091 33.0449C982.12 29.9261 983.149 26.8102 984.184 23.6944C984.354 23.1789 984.595 22.7037 985.13 22.4676C985.972 22.0961 986.806 22.3985 987.2 23.2711C987.481 23.896 987.68 24.5583 987.895 25.2091C988.855 28.1176 989.81 31.0262 990.764 33.9376C990.816 34.0931 990.836 34.2543 990.882 34.4646C990.091 34.4646 989.355 34.4761 988.622 34.4502C988.519 34.4473 988.378 34.2774 988.332 34.1536C988.073 33.4739 987.826 32.7914 987.602 32.1003C987.498 31.7835 987.335 31.6338 986.99 31.6424C986.162 31.6597 985.331 31.6568 984.5 31.6453C984.219 31.6424 984.081 31.7663 983.994 32.0226C983.764 32.7252 983.506 33.4192 983.279 34.1248C983.198 34.3782 983.063 34.4732 982.801 34.4703C982.106 34.4588 981.413 34.4675 980.645 34.4675L980.643 34.4703ZM985.811 25.8714C985.719 25.9982 985.676 26.0356 985.664 26.0788C985.354 27.2537 985.044 28.4315 984.736 29.6065C984.673 29.8426 984.805 29.9088 985.006 29.9088C985.509 29.9088 986.015 29.8973 986.518 29.9175C986.875 29.9319 986.938 29.7994 986.846 29.4769C986.547 28.4315 986.268 27.3804 985.981 26.3351C985.943 26.2026 985.889 26.0788 985.814 25.8714H985.811Z" fill="white"/>
<path d="M939.958 34.4617C939.139 34.4617 938.391 34.4732 937.647 34.4473C937.546 34.4444 937.411 34.263 937.365 34.1363C937.106 33.4423 936.859 32.7454 936.632 32.0427C936.537 31.7432 936.368 31.6338 936.066 31.6395C935.238 31.6511 934.407 31.6511 933.576 31.6395C933.28 31.6367 933.134 31.7662 933.044 32.0398C932.812 32.7425 932.55 33.4336 932.317 34.1363C932.234 34.3868 932.096 34.479 931.834 34.4732C931.15 34.4588 930.466 34.4674 929.71 34.4674C929.796 34.1564 929.857 33.9001 929.94 33.6467C931.035 30.3321 932.13 27.0205 933.234 23.7088C933.427 23.1299 933.697 22.6029 934.35 22.41C935.157 22.1681 935.859 22.4474 936.232 23.2192C936.439 23.6483 936.577 24.1119 936.73 24.5669C937.739 27.6223 938.742 30.6777 939.745 33.736C939.817 33.952 939.875 34.1737 939.958 34.4617ZM934.85 25.8714C934.772 25.9981 934.718 26.0557 934.7 26.122C934.396 27.2854 934.097 28.4517 933.792 29.6151C933.729 29.8599 933.855 29.9146 934.056 29.9146C934.585 29.9146 935.117 29.9146 935.646 29.9203C935.945 29.9232 935.985 29.7936 935.908 29.5287C935.6 28.4459 935.31 27.3603 935.008 26.2746C934.976 26.1565 934.919 26.0471 934.85 25.8714Z" fill="white"/>
<path d="M973.907 27.7836C974.488 27.4985 975.022 27.2653 975.528 26.9802C976.052 26.6864 976.549 26.3524 976.655 25.6785C976.759 25.0191 976.302 24.3538 975.641 24.3135C974.942 24.2703 974.241 24.2991 973.542 24.2991C973.243 24.2991 973.229 24.5036 973.229 24.7282C973.234 27.6511 973.234 30.5741 973.249 33.4941C973.255 34.4675 973.272 34.4675 972.289 34.4703C972.004 34.4703 971.717 34.4646 971.432 34.479C971.176 34.4934 971.093 34.3868 971.096 34.1363C971.107 33.4999 971.096 32.8635 971.096 32.227C971.096 29.3185 971.096 26.4071 971.096 23.4986C971.096 22.8017 971.245 22.6058 971.935 22.4676C972.225 22.41 972.527 22.3927 972.823 22.3899C973.847 22.3841 974.873 22.4071 975.896 22.3899C977.952 22.3524 979.179 23.9881 978.676 26.0903C978.42 27.1558 977.811 27.9737 976.776 28.4056C976.46 28.5381 976.46 28.7022 976.575 28.9758C977.273 30.6259 977.96 32.2789 978.65 33.9318C978.713 34.0816 978.762 34.24 978.843 34.4617C978.101 34.4617 977.42 34.4675 976.739 34.4531C976.661 34.4531 976.549 34.3523 976.517 34.2716C975.643 32.1205 974.781 29.9664 973.901 27.7807L973.907 27.7836Z" fill="white"/>
<path d="M969.175 28.492C969.175 29.4798 969.173 30.4646 969.175 31.4524C969.181 32.826 968.468 33.8857 967.172 34.3206C966.048 34.6978 964.898 34.6806 963.765 34.3523C962.662 34.0355 961.558 32.8145 961.624 31.3948C961.716 29.4394 961.707 27.4726 961.63 25.5144C961.575 24.1523 962.624 22.9975 963.57 22.6894C964.99 22.2286 966.442 22.1278 967.776 22.9428C968.693 23.5014 969.259 24.3135 969.19 25.4913C969.129 26.4877 969.178 27.4899 969.178 28.4891L969.175 28.492ZM966.982 28.5237H966.988C966.988 27.5619 966.985 26.6029 966.988 25.6411C966.991 25.0651 966.712 24.685 966.209 24.4489C965.654 24.1897 965.108 24.2099 964.562 24.4892C964.116 24.7167 963.869 25.0651 963.869 25.572C963.869 27.5331 963.863 29.4942 963.866 31.4553C963.866 31.8325 964.033 32.1291 964.34 32.348C964.852 32.7108 965.41 32.7915 966.005 32.61C966.692 32.3998 966.979 32.011 966.982 31.2911C966.988 30.3696 966.982 29.4481 966.982 28.5237Z" fill="white"/>
<path d="M960.135 2.4939C960.135 2.87978 960.135 3.19943 960.135 3.5162C960.135 4.28221 960.152 5.04822 960.12 5.81423C960.112 5.99853 959.994 6.23179 959.85 6.35274C959.382 6.74438 959.261 7.03235 959.554 7.5651C959.798 8.00858 959.856 8.4607 959.853 8.94738C959.836 12.2331 959.833 15.5189 959.819 18.8047C959.819 19.0005 959.79 19.3403 959.704 19.3634C959.428 19.4411 959.117 19.4181 958.824 19.395C958.775 19.3922 958.709 19.1848 958.706 19.0725C958.697 18.4764 958.697 17.8774 958.712 17.2813C958.72 16.9732 958.62 16.8378 958.289 16.8407C957.045 16.8551 955.8 16.8551 954.555 16.8465C954.253 16.8465 954.11 16.9214 954.095 17.2554C954.078 17.6989 953.928 17.8083 953.494 17.696C952.488 17.4311 951.683 16.858 951.132 15.9768C950.7 15.2885 950.835 14.5571 951.545 14.1568C952.273 13.7479 953.078 13.4772 953.857 13.1633C953.928 13.1345 954.121 13.2238 954.147 13.2987C954.305 13.7652 954.558 13.8631 955.073 13.8199C956.024 13.7393 956.987 13.8199 957.947 13.8343C958.091 13.8343 958.232 13.8343 958.375 13.84C958.68 13.8573 958.764 13.7133 958.775 13.4167C958.833 11.8501 958.545 10.3469 958.013 8.88114C957.792 8.27352 957.622 7.64286 957.467 7.01508C957.418 6.82213 957.43 6.55432 957.53 6.39305C958.329 5.12021 959.157 3.86177 959.98 2.60333C959.991 2.58317 960.02 2.57453 960.138 2.49678L960.135 2.4939Z" fill="white"/>
<path d="M960.59 2.64941C960.886 3.09577 961.19 3.53925 961.478 3.99425C961.981 4.79193 962.481 5.5925 962.955 6.41034C963.047 6.56585 963.079 6.81063 963.03 6.98629C962.694 8.22457 962.257 9.43982 961.995 10.6925C961.803 11.6227 961.814 12.596 961.757 13.5492C961.742 13.8084 961.961 13.8372 962.173 13.8343C963.185 13.8257 964.194 13.8228 965.206 13.817C965.31 13.817 965.427 13.7911 965.514 13.8285C965.933 14.0128 966.1 13.7249 966.201 13.4282C966.281 13.1979 966.405 13.1144 966.595 13.1892C967.299 13.4743 968.038 13.7105 968.679 14.105C969.619 14.6809 969.564 15.5362 968.897 16.3512C968.368 16.9934 967.71 17.457 966.891 17.6701C966.503 17.7709 966.347 17.6874 966.324 17.29C966.304 16.953 966.149 16.8494 965.83 16.8494C964.637 16.858 963.444 16.8523 962.251 16.8436C961.943 16.8436 961.8 16.9386 961.811 17.2727C961.831 17.8429 961.797 18.4159 961.823 18.9861C961.843 19.467 961.518 19.4037 961.225 19.4267C960.926 19.4469 960.739 19.3893 960.739 19.0149C960.739 15.4959 960.719 11.9769 960.728 8.45783C960.728 8.19002 960.883 7.91644 960.998 7.66015C961.271 7.06116 961.193 6.73863 960.667 6.31819C960.575 6.24332 960.475 6.11085 960.472 6.0043C960.457 4.90424 960.463 3.80419 960.463 2.70413C960.503 2.68685 960.546 2.67245 960.587 2.65517L960.59 2.64941Z" fill="white"/>
<path d="M959.716 31.127C959.779 32.5294 959.089 34.2832 956.87 34.5337C955.562 34.6806 954.306 34.479 953.214 33.6669C952.547 33.1716 952.23 32.515 952.245 31.6569C952.276 29.5662 952.285 27.4755 952.245 25.3848C952.225 24.3567 952.653 23.6253 953.49 23.1242C954.843 22.315 956.298 22.1537 957.79 22.6606C958.928 23.0493 959.742 24.2991 959.742 25.5086C959.742 25.7736 959.638 25.8456 959.397 25.8398C958.983 25.8283 958.566 25.8225 958.152 25.8427C957.859 25.8571 957.727 25.762 957.64 25.4626C957.295 24.2963 955.76 23.8528 954.861 24.6735C954.645 24.8693 954.464 25.2235 954.458 25.5086C954.424 27.4956 954.43 29.4827 954.453 31.4697C954.455 31.7173 954.582 32.0139 954.751 32.1982C955.597 33.1226 957.27 32.7483 957.632 31.5503C957.735 31.2047 957.896 31.1039 958.23 31.1212C958.718 31.1443 959.207 31.127 959.719 31.127H959.716Z" fill="white"/>
<path d="M938.167 21.5663C937.434 21.5663 936.776 21.5778 936.117 21.5577C935.997 21.5548 935.859 21.4511 935.767 21.3561C935.525 21.1056 935.295 20.8378 935.077 20.5671C934.913 20.3655 934.746 20.2791 934.608 20.5613C933.959 21.8889 932.783 21.5836 931.593 21.5346C931.86 21.1545 932.087 20.8205 932.326 20.4951C932.757 19.9105 933.182 19.3201 933.639 18.7586C933.752 18.6175 933.97 18.5023 934.148 18.4879C934.637 18.4505 935.134 18.4591 935.623 18.485C935.77 18.4937 935.959 18.5772 936.048 18.6924C936.724 19.562 937.382 20.4461 938.043 21.3273C938.081 21.3763 938.101 21.4367 938.167 21.5692V21.5663Z" fill="white"/>
<path d="M972.183 37.1083C972.232 37.3387 972.381 37.6238 972.298 37.7821C972.206 37.9578 971.901 38.1018 971.68 38.1162C970.817 38.1709 970.817 38.1507 970.812 37.2926C970.812 37.1371 970.792 36.9787 970.812 36.8289C970.84 36.6158 970.895 36.2242 970.944 36.2242C971.332 36.2184 971.763 36.1954 972.097 36.3567C972.424 36.5122 972.214 36.8491 972.036 37.091C972.085 37.0968 972.131 37.1025 972.18 37.1083H972.183ZM971.516 37.9232C971.766 37.9146 972.051 37.8944 972.036 37.5604C972.022 37.2062 971.711 37.2264 971.453 37.2091C971.206 37.1947 971.079 37.2638 971.079 37.5518C971.079 37.8829 971.237 37.952 971.519 37.9204L971.516 37.9232ZM971.47 37.0017C971.493 37.0305 971.516 37.0593 971.539 37.091C971.68 36.9672 971.924 36.8549 971.941 36.7166C971.973 36.4287 971.709 36.4027 971.476 36.4056C971.283 36.4085 971.085 36.3826 971.079 36.685C971.073 36.9816 971.226 37.0363 971.47 37.0017Z" fill="white"/>
<path d="M954.552 38.2055C954.271 38.1882 953.908 38.1882 953.552 38.1393C953.066 38.0759 952.796 37.6008 952.871 37.0018C952.943 36.423 953.288 36.1148 953.825 36.1465C954.343 36.1753 954.673 36.5698 954.664 37.1659C954.664 37.307 954.61 37.4453 954.595 37.5864C954.575 37.7851 954.567 37.9838 954.552 38.2055ZM953.814 37.6958C954.003 37.6497 954.193 37.6612 954.276 37.572C954.466 37.3704 954.4 36.8204 954.19 36.5957C953.995 36.3884 953.77 36.3078 953.497 36.4662C953.198 36.6418 953.06 37.0939 953.201 37.4971C953.305 37.7908 953.492 37.9723 953.854 37.9147C953.834 37.8139 953.819 37.7304 953.814 37.6958Z" fill="white"/>
<path d="M936.825 36.9008C936.805 37.304 936.785 37.7071 936.767 38.1103C936.713 38.1103 936.658 38.1103 936.604 38.1074C936.592 37.9404 936.569 37.7734 936.569 37.6092C936.569 37.2464 936.563 36.8835 936.583 36.5207C936.589 36.4141 936.67 36.3105 936.716 36.2068C936.811 36.2817 936.931 36.3364 936.995 36.4343C937.207 36.7683 937.403 37.1139 937.601 37.4566C937.644 37.4508 937.684 37.4451 937.728 37.4393C937.739 37.1456 937.739 36.8518 937.765 36.5581C937.774 36.4429 937.834 36.3335 937.871 36.2241C937.923 36.3364 938.012 36.4458 938.018 36.5581C938.035 36.9843 938.029 37.4134 938.015 37.8396C938.012 37.9375 937.932 38.0297 937.886 38.1247C937.791 38.07 937.661 38.0383 937.607 37.9577C937.377 37.6035 937.17 37.2348 936.954 36.872C936.911 36.8806 936.868 36.8922 936.825 36.9008Z" fill="white"/>
<path d="M943.793 37.2781C943.974 37.5546 944.135 37.7994 944.296 38.0413C944.268 38.0787 944.239 38.1161 944.21 38.1536C944.095 38.0758 943.963 38.0182 943.874 37.9203C943.736 37.7677 943.65 37.5661 943.503 37.425C943.414 37.3386 943.256 37.281 943.135 37.2896C943.08 37.2925 943.023 37.4883 943 37.6064C942.968 37.7734 942.968 37.9462 942.957 38.119C942.914 38.1248 942.871 38.1334 942.83 38.1392C942.793 38.0499 942.727 37.9635 942.727 37.8742C942.721 37.4077 942.738 36.9383 942.727 36.4718C942.724 36.2472 942.816 36.1666 943.026 36.1781C943.247 36.1896 943.466 36.1982 943.687 36.204C943.926 36.2097 944.173 36.276 944.178 36.538C944.184 36.7396 944.055 36.947 943.969 37.1457C943.948 37.1975 943.871 37.2234 943.793 37.2781ZM943.376 37.0679C943.604 37.0362 943.92 37.0967 943.92 36.7396C943.92 36.4228 943.65 36.42 943.411 36.4142C943.192 36.4084 942.997 36.4056 942.994 36.7166C942.994 36.9902 943.118 37.0909 943.376 37.065V37.0679Z" fill="white"/>
<path d="M978.058 37.137C978.058 36.9815 978.058 36.826 978.058 36.6705C978.058 36.3384 978.23 36.1762 978.575 36.1839C979.435 36.204 979.88 37.0219 979.446 37.785C979.283 38.0758 979.009 38.1306 978.716 38.1277C977.946 38.1219 978.044 38.2141 978.046 37.4855C978.046 37.3703 978.046 37.2522 978.046 37.137H978.055H978.058ZM979.306 37.0391C979.285 36.9729 979.277 36.7368 979.162 36.6532C978.984 36.5237 978.731 36.4689 978.506 36.4517C978.455 36.4488 978.345 36.7224 978.328 36.875C978.299 37.1169 978.334 37.3645 978.328 37.6093C978.322 37.8455 978.437 37.9261 978.659 37.9261C979.096 37.9261 979.308 37.6784 979.306 37.0363V37.0391Z" fill="white"/>
<path d="M942.275 37.1801C942.27 37.8252 941.968 38.1535 941.384 38.1563C940.818 38.1563 940.47 37.782 940.482 37.183C940.493 36.5408 940.835 36.152 941.387 36.1492C941.954 36.1492 942.281 36.5264 942.275 37.1801ZM942.011 37.1571C942.011 36.7309 941.749 36.3939 941.407 36.3824C941.068 36.3709 940.772 36.7338 940.766 37.1686C940.761 37.5833 941.034 37.926 941.376 37.9375C941.732 37.949 942.008 37.6121 942.011 37.1571Z" fill="white"/>
<path d="M982.048 37.1571C982.048 37.0794 982.025 36.9901 982.051 36.9268C982.157 36.6791 981.772 36.2183 982.358 36.1838C983.218 36.1377 983.497 36.3191 983.58 36.9555C983.701 37.8857 983.088 38.4041 982.189 38.119C982.123 38.0988 982.054 37.975 982.045 37.8943C982.028 37.6496 982.039 37.4019 982.039 37.1571H982.048ZM982.324 37.1427C982.324 37.2723 982.335 37.4019 982.324 37.5315C982.284 37.9087 982.496 37.9721 982.801 37.9289C983.238 37.8655 983.445 37.3645 983.267 36.8058C983.175 36.5149 982.893 36.3652 982.554 36.4228C982.238 36.4746 982.344 36.7223 982.327 36.9124C982.321 36.9901 982.327 37.0679 982.327 37.1456L982.324 37.1427Z" fill="white"/>
<path d="M959.094 36.6878C958.991 36.6244 958.89 36.5496 958.781 36.5035C958.646 36.4488 958.497 36.3825 958.359 36.3912C958.272 36.3969 958.146 36.5236 958.131 36.61C958.12 36.682 958.226 36.8145 958.31 36.8577C958.482 36.9441 958.675 36.9873 958.859 37.0506C959.138 37.1457 959.293 37.33 959.255 37.6352C959.221 37.9318 959.031 38.1017 958.747 38.1392C958.419 38.1852 958.088 38.1766 957.873 37.8656C957.827 37.7994 957.853 37.6784 957.847 37.5834C957.93 37.6122 958.025 37.6295 958.097 37.6784C958.18 37.7331 958.232 37.8483 958.318 37.8857C958.557 37.9837 958.801 37.9664 958.919 37.7101C959.046 37.4336 958.807 37.3559 958.612 37.281C958.456 37.2205 958.255 37.2205 958.143 37.1169C958.005 36.993 957.835 36.7742 957.858 36.6273C957.887 36.4574 958.088 36.2529 958.261 36.1867C958.666 36.0283 959.02 36.2184 959.092 36.6849L959.094 36.6878Z" fill="white"/>
<path d="M951.058 37.4652C951.216 37.6092 951.29 37.7186 951.391 37.759C951.569 37.8309 951.765 37.8943 951.954 37.8914C952.032 37.8914 952.153 37.7186 952.17 37.6121C952.182 37.5315 952.081 37.3932 951.995 37.3472C951.851 37.2694 951.679 37.2464 951.518 37.1916C951.253 37.1024 951.04 36.9555 951.069 36.6387C951.098 36.3076 951.331 36.1837 951.63 36.1521C952.055 36.106 952.299 36.2615 952.377 36.7021C952.236 36.6272 952.144 36.5667 952.044 36.5293C951.897 36.4746 951.742 36.4026 951.589 36.4026C951.509 36.4026 951.377 36.5351 951.362 36.6215C951.351 36.6935 951.463 36.8202 951.549 36.8662C951.707 36.9469 951.888 36.9843 952.061 37.0419C952.363 37.1398 952.506 37.3443 952.472 37.661C952.437 37.9663 952.233 38.1074 951.952 38.1506C951.405 38.237 951.078 38.0325 951.058 37.4681V37.4652Z" fill="white"/>
<path d="M963.009 36.7455C962.84 36.636 962.759 36.564 962.664 36.5295C962.509 36.4748 962.342 36.4143 962.181 36.4201C962.112 36.4201 962.046 36.5784 961.977 36.662C962.118 36.7627 962.248 36.8779 962.4 36.9586C962.523 37.0248 962.679 37.0277 962.805 37.091C963.127 37.2494 963.245 37.7447 962.966 37.9348C962.748 38.0845 962.42 38.1335 962.141 38.1306C961.868 38.1306 961.696 37.9118 961.693 37.546C961.788 37.6036 961.882 37.6699 961.983 37.7217C962.138 37.7995 962.296 37.9175 962.454 37.9175C962.569 37.9175 962.751 37.7707 962.776 37.6583C962.799 37.5633 962.667 37.3934 962.558 37.3185C962.449 37.2408 962.288 37.2437 962.153 37.1976C961.874 37.1026 961.652 36.9499 961.698 36.613C961.744 36.2847 961.989 36.1724 962.285 36.1522C962.707 36.1234 962.917 36.2646 963.006 36.7455H963.009Z" fill="white"/>
<path d="M985.308 37.2119C985.101 37.2119 984.891 37.2234 984.684 37.2119C984.394 37.1917 984.342 37.353 984.339 37.5978C984.333 37.8598 984.46 37.9376 984.698 37.9261C984.928 37.9146 985.158 37.9261 985.388 37.9261C985.397 37.9693 985.405 38.0125 985.414 38.0557C985.276 38.0816 985.138 38.1277 984.997 38.1334C984.057 38.1709 984.057 38.168 984.057 37.2465C984.057 37.1831 984.051 37.1169 984.057 37.0535C984.083 36.7771 984.066 36.2817 984.149 36.2645C984.543 36.181 984.963 36.227 985.374 36.227C985.374 36.2789 985.38 36.3307 985.382 36.3797C985.158 36.3969 984.931 36.3883 984.716 36.4373C984.583 36.4689 984.402 36.5611 984.362 36.6705C984.29 36.8577 984.371 37.0247 984.632 37.0103C984.856 36.9988 985.081 37.0103 985.305 37.0103C985.305 37.0794 985.308 37.1514 985.311 37.2205L985.308 37.2119Z" fill="white"/>
<path d="M946.371 38.1536C945.937 38.0758 945.894 37.6266 945.454 37.6208C944.994 37.6151 944.98 38.0902 944.54 38.1622C944.678 37.7878 944.793 37.4826 944.905 37.1773C945.003 36.9095 945.095 36.6388 945.204 36.3768C945.299 36.1435 945.552 36.0888 945.641 36.2904C945.894 36.875 946.11 37.4797 946.371 38.1564V38.1536ZM945.103 37.4336C945.368 37.4192 945.543 37.4106 945.782 37.3991C945.67 37.0909 945.586 36.8548 945.5 36.6216C945.46 36.6273 945.423 36.6302 945.382 36.6359C945.302 36.8692 945.218 37.0996 945.103 37.4336Z" fill="white"/>
<path d="M936.198 38.1306C935.917 38.0586 934.603 38.0557 934.419 38.145C934.468 37.9664 934.494 37.8397 934.537 37.7216C934.695 37.2839 934.853 36.8433 935.028 36.4114C935.066 36.3221 935.172 36.2242 935.264 36.204C935.333 36.1867 935.474 36.2674 935.503 36.3394C935.736 36.9096 935.951 37.4913 936.198 38.1306ZM935.523 37.451C935.552 37.4135 935.58 37.3732 935.606 37.3358C935.506 37.0996 935.408 36.8606 935.307 36.6245C935.258 36.6302 935.212 36.6389 935.163 36.6446C935.117 36.8836 935.071 37.1255 935.025 37.3646C935.189 37.3934 935.356 37.4222 935.52 37.451H935.523Z" fill="white"/>
<path d="M955.306 36.2012C955.326 36.3135 955.361 36.4287 955.363 36.5439C955.375 36.8549 955.358 37.1659 955.378 37.474C955.398 37.7533 955.55 37.9348 955.852 37.9319C956.154 37.9319 956.249 37.7217 956.257 37.4654C956.269 37.1284 956.255 36.7915 956.275 36.4575C956.28 36.3711 956.375 36.2904 956.43 36.2069C956.467 36.2904 956.539 36.374 956.542 36.4575C956.551 36.8318 956.559 37.2091 956.536 37.5834C956.51 37.9952 956.309 38.1536 955.867 38.1594C955.395 38.1651 955.154 38.0096 955.128 37.6094C955.099 37.1428 955.122 36.6763 955.122 36.2069C955.185 36.2069 955.248 36.2041 955.312 36.2012H955.306Z" fill="white"/>
<path d="M965.683 38.1162C965.281 38.1162 964.875 38.1249 964.473 38.1047C964.43 38.1047 964.358 37.9463 964.355 37.8628C964.343 37.3963 964.343 36.9269 964.358 36.4604C964.361 36.3682 964.453 36.2099 964.51 36.2041C964.887 36.1811 965.266 36.1926 965.643 36.1926C965.646 36.2531 965.649 36.3106 965.651 36.3711C965.419 36.3884 965.186 36.4114 964.953 36.4172C964.763 36.423 964.622 36.4518 964.622 36.6908C964.622 36.8952 964.674 37.0133 964.907 37.0018C965.128 36.9903 965.35 37.0018 965.571 37.0018C965.571 37.0623 965.571 37.1199 965.574 37.1803C965.373 37.189 965.171 37.2149 964.973 37.2062C964.729 37.1976 964.617 37.2811 964.614 37.5374C964.614 37.788 964.677 37.9377 964.962 37.9233C965.2 37.9118 965.439 37.9233 965.674 37.9233C965.674 37.9895 965.677 38.0558 965.68 38.1191L965.683 38.1162Z" fill="white"/>
<path d="M961.348 38.1566C960.911 38.0875 960.902 37.6094 960.44 37.6152C960 37.6209 959.96 38.0529 959.528 38.171C959.79 37.4741 960.006 36.8751 960.253 36.2905C960.27 36.2473 960.618 36.2617 960.644 36.3193C960.888 36.8952 961.098 37.4885 961.351 38.1594L961.348 38.1566ZM960.483 36.6159C960.442 36.6159 960.402 36.6217 960.359 36.6245C960.284 36.8693 960.207 37.1112 960.115 37.4078H960.77C960.664 37.1141 960.572 36.8636 960.483 36.6159Z" fill="white"/>
<path d="M950.491 37.1773C950.293 37.1889 950.094 37.2177 949.899 37.2061C949.643 37.1946 949.513 37.2781 949.513 37.5546C949.513 37.8166 949.614 37.9376 949.884 37.9203C950.123 37.9059 950.361 37.9203 950.6 37.9203C950.606 37.9721 950.612 38.024 950.617 38.0758C950.459 38.096 950.304 38.1277 950.146 38.1305C949.266 38.142 949.266 38.1392 949.252 37.2781C949.249 37.0046 949.24 36.7339 949.252 36.4603C949.258 36.3739 949.324 36.2155 949.37 36.2155C949.764 36.1953 950.16 36.204 950.554 36.204C950.557 36.2587 950.56 36.3134 950.566 36.3653C950.428 36.3854 950.284 36.3912 950.149 36.4286C949.925 36.4862 949.539 36.2385 949.528 36.7108C949.513 37.2061 949.91 36.9441 950.129 37.0017C950.244 37.0305 950.367 37.0247 950.485 37.0334C950.485 37.0823 950.485 37.1313 950.485 37.1802L950.491 37.1773Z" fill="white"/>
<path d="M979.866 38.1506C980.122 37.4768 980.323 36.8922 980.568 36.3249C980.657 36.1147 980.892 36.106 980.984 36.3163C981.235 36.8893 981.439 37.4825 981.689 38.1449C981.26 38.0873 981.217 37.615 980.766 37.6179C980.32 37.6208 980.306 38.093 979.866 38.1506ZM980.852 36.6301C980.803 36.6301 980.752 36.6301 980.703 36.633C980.625 36.8778 980.545 37.1226 980.453 37.4134H981.117C981.019 37.1197 980.936 36.8749 980.852 36.6301Z" fill="white"/>
<path d="M970.185 36.207C970.208 36.2847 970.246 36.3625 970.248 36.4402C970.254 36.7916 970.257 37.1429 970.248 37.4913C970.234 37.9694 970.05 38.1479 969.581 38.1566C969.073 38.1652 968.854 37.9982 968.825 37.5317C968.802 37.1573 968.805 36.78 968.814 36.4028C968.814 36.3366 968.9 36.2732 968.946 36.207C968.989 36.2732 969.064 36.3394 969.067 36.4086C969.081 36.734 969.07 37.0565 969.081 37.3819C969.093 37.6814 969.193 37.9291 969.55 37.9291C969.926 37.9291 969.978 37.6612 969.978 37.3646C969.978 37.0795 969.978 36.7916 969.995 36.5065C970.001 36.3999 970.053 36.2962 970.082 36.1897C970.116 36.1926 970.151 36.1955 970.185 36.2012V36.207Z" fill="white"/>
<path d="M947.395 37.1628C947.395 37.0073 947.395 36.8518 947.395 36.6992C947.395 36.4343 947.311 36.1578 947.768 36.1751C948.562 36.2039 948.769 36.296 948.777 36.751C948.783 37.1484 948.608 37.3385 948.133 37.327C947.751 37.3183 947.622 37.4537 947.662 37.8223C947.671 37.9144 947.593 38.0181 947.556 38.116C947.501 38.0181 947.415 37.9231 947.403 37.8223C947.38 37.6063 947.395 37.3846 947.398 37.1657L947.395 37.1628ZM947.673 36.7856C947.636 37.0332 947.737 37.1542 947.993 37.1283C948.228 37.1024 948.493 37.0822 948.478 36.7654C948.467 36.4976 948.254 36.4256 948.01 36.4141C947.731 36.3997 947.636 36.5293 947.671 36.7885L947.673 36.7856Z" fill="white"/>
<path d="M939.958 36.705C939.852 36.6445 939.751 36.5725 939.639 36.5293C939.504 36.4775 939.34 36.3882 939.22 36.4228C938.886 36.5178 938.788 36.8115 938.777 37.1254C938.765 37.4364 938.834 37.7302 939.142 37.8857C939.372 38.0009 939.559 37.9087 939.717 37.7129C939.774 37.6409 939.895 37.6208 939.987 37.5776C939.964 37.6899 939.976 37.8655 939.909 37.9001C939.705 38.0124 939.475 38.1276 939.248 38.142C938.903 38.1593 938.668 37.9346 938.561 37.6121C938.418 37.1802 938.455 36.7511 938.76 36.4026C938.99 36.1377 939.32 36.0686 939.648 36.2126C939.806 36.2817 939.927 36.4314 940.065 36.5466C940.03 36.5984 939.993 36.6503 939.958 36.705Z" fill="white"/>
<path d="M975.218 37.3214C975.206 36.4171 975.75 35.9621 976.399 36.2155C976.491 36.253 976.595 36.3106 976.647 36.3883C976.693 36.4546 976.675 36.5669 976.684 36.6561C976.604 36.6389 976.497 36.6504 976.445 36.6014C976.261 36.4286 976.077 36.3019 975.827 36.4546C975.517 36.6446 975.442 36.9614 975.511 37.2695C975.563 37.497 975.715 37.7504 975.899 37.8772C975.994 37.9405 976.261 37.7562 976.448 37.6813C976.535 37.6468 976.618 37.6065 976.704 37.569C976.695 37.6727 976.718 37.7965 976.67 37.8714C976.385 38.3034 975.609 38.24 975.359 37.7591C975.273 37.5921 975.241 37.3934 975.221 37.3214H975.218Z" fill="white"/>
<path d="M966.956 37.1543C966.956 37.1024 966.956 37.0506 966.956 36.9988C966.953 36.1608 967.203 35.9678 968.011 36.2414C968.152 36.2875 968.31 36.5121 968.319 36.6618C968.327 36.849 968.204 37.0506 968.106 37.2292C968.074 37.2867 967.942 37.3213 967.862 37.3155C967.428 37.2868 967.175 37.4221 967.235 37.9145C967.241 37.9692 967.14 38.0384 967.091 38.0988C967.048 38.0297 966.976 37.9606 966.97 37.8886C966.956 37.6438 966.965 37.3991 966.965 37.1543C966.965 37.1543 966.962 37.1543 966.959 37.1543H966.956ZM967.643 37.2004C967.781 37.065 968.02 36.9412 968.037 36.7914C968.069 36.515 967.821 36.4257 967.563 36.4142C967.295 36.4027 967.241 36.5553 967.241 36.7799C967.241 37.0103 967.307 37.16 967.64 37.2004H967.643Z" fill="white"/>
<path d="M973.108 36.2271C973.108 36.5007 973.108 36.7714 973.108 37.045C973.112 37.5998 973.385 37.8936 973.927 37.9262C973.976 37.9291 974.022 37.9492 974.071 37.9607C974.077 38.0011 974.08 38.0414 974.085 38.0817C973.907 38.099 973.729 38.1249 973.551 38.1306C972.691 38.1479 972.855 38.1882 972.843 37.4482C972.838 37.1371 972.843 36.8261 972.852 36.5151C972.855 36.4143 972.892 36.3164 972.912 36.2185C972.979 36.2214 973.045 36.2271 973.111 36.23L973.108 36.2271Z" fill="white"/>
<path d="M977.273 37.1657C977.273 36.9066 977.265 36.6503 977.279 36.394C977.282 36.3277 977.368 36.2701 977.417 36.2068C977.46 36.273 977.544 36.3364 977.544 36.4026C977.555 36.9037 977.555 37.4076 977.544 37.9116C977.544 37.9807 977.463 38.0498 977.417 38.116C977.365 38.0441 977.276 37.9749 977.27 37.9001C977.25 37.6553 977.265 37.4105 977.265 37.1657H977.273Z" fill="white"/>
<path d="M974.557 38.1276C974.534 38.047 974.493 37.9692 974.493 37.8886C974.491 37.4106 974.488 36.9325 974.505 36.4545C974.508 36.3652 974.597 36.2817 974.649 36.1953C974.686 36.2788 974.758 36.3595 974.758 36.443C974.769 36.9066 974.766 37.3731 974.758 37.8368C974.758 37.9375 974.712 38.0355 974.686 38.1334C974.643 38.1334 974.6 38.1276 974.557 38.1247V38.1276Z" fill="white"/>
<path d="M957.168 38.1306C957.139 38.0442 957.091 37.9607 957.091 37.8743C957.082 37.3963 957.079 36.9154 957.091 36.4374C957.091 36.3538 957.194 36.2732 957.249 36.1897C957.289 36.2732 957.361 36.3538 957.364 36.4374C957.375 36.878 957.378 37.3186 957.369 37.7592C957.369 37.883 957.312 38.0068 957.28 38.1335C957.243 38.1335 957.206 38.1335 957.165 38.1335L957.168 38.1306Z" fill="white"/>
<line opacity="0.6" x1="1012" y1="27" x2="1920" y2="27" stroke="#FECC2B" stroke-dasharray="2 2"/>
</svg>
