<svg width="48" height="39" viewBox="0 0 48 39" fill="none" xmlns="http://www.w3.org/2000/svg">
<g filter="url(#filter0_d_291_24)">
<path d="M7.33413 30.5C6.4595 30.5 5.68515 30.1586 5.01111 29.4757C4.33704 28.7929 4 28.0084 4 27.1224V3.87761C4 2.99157 4.33704 2.20713 5.01111 1.5243C5.68515 0.841432 6.4595 0.5 7.33413 0.5H40.6659C41.5405 0.5 42.3148 0.841432 42.9889 1.5243C43.663 2.20713 44 2.99157 44 3.87761V27.1224C44 28.0084 43.663 28.7929 42.9889 29.4757C42.3148 30.1586 41.5405 30.5 40.6659 30.5H7.33413ZM24 17.0179C24.1522 17.0179 24.295 16.9948 24.4282 16.9485C24.5614 16.9022 24.7079 16.8328 24.8678 16.7403L40.1228 7.34397C40.2717 7.25396 40.3994 7.10871 40.506 6.90821C40.6126 6.70771 40.6659 6.49352 40.6659 6.26563C40.6659 5.7935 40.4527 5.41628 40.0264 5.13395C39.6002 4.85161 39.1739 4.86468 38.7476 5.17313L24 14.0567L9.34375 5.17313C8.88702 4.89552 8.4379 4.8801 7.99639 5.12687C7.55489 5.37363 7.33413 5.74378 7.33413 6.23731C7.33413 6.45323 7.39503 6.66144 7.51683 6.86194C7.63862 7.06244 7.76042 7.22438 7.88221 7.34776L23.1322 16.7403C23.2921 16.8328 23.4386 16.9022 23.5718 16.9485C23.705 16.9948 23.8478 17.0179 24 17.0179Z" fill="#FECC2B"/>
</g>
<defs>
<filter id="filter0_d_291_24" x="0" y="0.5" width="48" height="38" filterUnits="userSpaceOnUse" color-interpolation-filters="sRGB">
<feFlood flood-opacity="0" result="BackgroundImageFix"/>
<feColorMatrix in="SourceAlpha" type="matrix" values="0 0 0 0 0 0 0 0 0 0 0 0 0 0 0 0 0 0 127 0" result="hardAlpha"/>
<feOffset dy="4"/>
<feGaussianBlur stdDeviation="2"/>
<feComposite in2="hardAlpha" operator="out"/>
<feColorMatrix type="matrix" values="0 0 0 0 0 0 0 0 0 0 0 0 0 0 0 0 0 0 0.25 0"/>
<feBlend mode="normal" in2="BackgroundImageFix" result="effect1_dropShadow_291_24"/>
<feBlend mode="normal" in="SourceGraphic" in2="effect1_dropShadow_291_24" result="shape"/>
</filter>
</defs>
</svg>
