<svg width="25" height="25" viewBox="0 0 25 25" fill="none" xmlns="http://www.w3.org/2000/svg">
<g clip-path="url(#clip0_296_332)">
<path fill-rule="evenodd" clip-rule="evenodd" d="M4.5 12.4658C4.50014 10.9263 4.94451 9.41947 5.77979 8.1262C6.61506 6.83294 7.80576 5.80816 9.20901 5.17483C10.6123 4.5415 12.1684 4.32652 13.6908 4.55569C15.2132 4.78486 16.6372 5.44844 17.7918 6.46681C18.9464 7.48518 19.7826 8.81508 20.2002 10.2969C20.6177 11.7788 20.5988 13.3496 20.1457 14.821C19.6926 16.2924 18.8246 17.6017 17.6458 18.592C16.467 19.5823 15.0275 20.2114 13.5 20.4038V14.4658H15.5C15.7652 14.4658 16.0196 14.3605 16.2071 14.1729C16.3946 13.9854 16.5 13.731 16.5 13.4658C16.5 13.2006 16.3946 12.9462 16.2071 12.7587C16.0196 12.5712 15.7652 12.4658 15.5 12.4658H13.5V10.4658C13.5 10.2006 13.6054 9.94625 13.7929 9.75871C13.9804 9.57118 14.2348 9.46582 14.5 9.46582H15C15.2652 9.46582 15.5196 9.36046 15.7071 9.17293C15.8946 8.98539 16 8.73104 16 8.46582C16 8.2006 15.8946 7.94625 15.7071 7.75871C15.5196 7.57118 15.2652 7.46582 15 7.46582H14.5C13.7044 7.46582 12.9413 7.78189 12.3787 8.3445C11.8161 8.90711 11.5 9.67017 11.5 10.4658V12.4658H9.5C9.23478 12.4658 8.98043 12.5712 8.79289 12.7587C8.60536 12.9462 8.5 13.2006 8.5 13.4658C8.5 13.731 8.60536 13.9854 8.79289 14.1729C8.98043 14.3605 9.23478 14.4658 9.5 14.4658H11.5V20.4038C9.5667 20.16 7.78882 19.2191 6.5 17.7576C5.21119 16.2961 4.50003 14.4144 4.5 12.4658ZM12.5 22.4658C18.023 22.4658 22.5 17.9888 22.5 12.4658C22.5 6.94282 18.023 2.46582 12.5 2.46582C6.977 2.46582 2.5 6.94282 2.5 12.4658C2.5 17.9888 6.977 22.4658 12.5 22.4658Z" fill="white"/>
</g>
<defs>
<clipPath id="clip0_296_332">
<rect width="24" height="24" fill="white" transform="translate(0.5 0.46582)"/>
</clipPath>
</defs>
</svg>
