<svg width="36" height="37" viewBox="0 0 36 37" fill="none" xmlns="http://www.w3.org/2000/svg">
<path d="M19.7308 17.851V10.7548C19.7308 10.3214 19.5793 9.95342 19.2764 9.65088C18.9736 9.34837 18.6012 9.19712 18.1594 9.19712C17.7176 9.19712 17.3426 9.34837 17.0344 9.65088C16.7262 9.95342 16.5721 10.3214 16.5721 10.7548V18.5C16.5721 18.7395 16.6082 18.9529 16.6803 19.1402C16.7524 19.3274 16.8606 19.489 17.0048 19.625L23.1058 25.899C23.3942 26.2452 23.7692 26.4183 24.2308 26.4183C24.6923 26.4183 25.0962 26.2452 25.4423 25.899C25.7308 25.6106 25.8822 25.2356 25.8966 24.774C25.9111 24.3125 25.7596 23.9231 25.4423 23.6058L19.7308 17.851ZM18.0119 36.5C15.5624 36.5 13.2366 36.0238 11.0345 35.0713C8.8324 34.1188 6.91904 32.8302 5.29442 31.2056C3.66981 29.581 2.38125 27.6676 1.42875 25.4655C0.47625 23.2634 0 20.9376 0 18.4881C0 16.0312 0.477101 13.7096 1.4313 11.5234C2.3855 9.33715 3.67637 7.42932 5.3039 5.79992C6.93143 4.17049 8.84478 2.87981 11.044 1.92788C13.2431 0.975962 15.5658 0.5 18.0119 0.5C20.4685 0.5 22.7898 0.975962 24.9758 1.92788C27.1618 2.87981 29.0697 4.17067 30.6995 5.80048C32.3293 7.43029 33.6202 9.33858 34.5721 11.5253C35.524 13.7121 36 16.0342 36 18.4917C36 20.9492 35.524 23.274 34.5721 25.4663C33.6202 27.6587 32.3295 29.5686 30.7001 31.1961C29.0707 32.8236 27.1629 34.1145 24.9766 35.0687C22.7904 36.0229 20.4688 36.5 18.0119 36.5Z" fill="#FECC2B"/>
</svg>
