<svg width="25" height="25" viewBox="0 0 25 25" fill="none" xmlns="http://www.w3.org/2000/svg">
<path d="M8.3 2.46582H16.7C19.9 2.46582 22.5 5.06582 22.5 8.26582V16.6658C22.5 18.2041 21.8889 19.6793 20.8012 20.767C19.7135 21.8548 18.2383 22.4658 16.7 22.4658H8.3C5.1 22.4658 2.5 19.8658 2.5 16.6658V8.26582C2.5 6.72756 3.11107 5.25231 4.19878 4.1646C5.28649 3.07689 6.76174 2.46582 8.3 2.46582ZM8.1 4.46582C7.14522 4.46582 6.22955 4.84511 5.55442 5.52024C4.87928 6.19537 4.5 7.11104 4.5 8.06582V16.8658C4.5 18.8558 6.11 20.4658 8.1 20.4658H16.9C17.8548 20.4658 18.7705 20.0865 19.4456 19.4114C20.1207 18.7363 20.5 17.8206 20.5 16.8658V8.06582C20.5 6.07582 18.89 4.46582 16.9 4.46582H8.1ZM17.75 5.96582C18.0815 5.96582 18.3995 6.09752 18.6339 6.33194C18.8683 6.56636 19 6.8843 19 7.21582C19 7.54734 18.8683 7.86528 18.6339 8.0997C18.3995 8.33412 18.0815 8.46582 17.75 8.46582C17.4185 8.46582 17.1005 8.33412 16.8661 8.0997C16.6317 7.86528 16.5 7.54734 16.5 7.21582C16.5 6.8843 16.6317 6.56636 16.8661 6.33194C17.1005 6.09752 17.4185 5.96582 17.75 5.96582ZM12.5 7.46582C13.8261 7.46582 15.0979 7.9926 16.0355 8.93029C16.9732 9.86797 17.5 11.1397 17.5 12.4658C17.5 13.7919 16.9732 15.0637 16.0355 16.0014C15.0979 16.939 13.8261 17.4658 12.5 17.4658C11.1739 17.4658 9.90215 16.939 8.96447 16.0014C8.02678 15.0637 7.5 13.7919 7.5 12.4658C7.5 11.1397 8.02678 9.86797 8.96447 8.93029C9.90215 7.9926 11.1739 7.46582 12.5 7.46582ZM12.5 9.46582C11.7044 9.46582 10.9413 9.78189 10.3787 10.3445C9.81607 10.9071 9.5 11.6702 9.5 12.4658C9.5 13.2615 9.81607 14.0245 10.3787 14.5871C10.9413 15.1497 11.7044 15.4658 12.5 15.4658C13.2956 15.4658 14.0587 15.1497 14.6213 14.5871C15.1839 14.0245 15.5 13.2615 15.5 12.4658C15.5 11.6702 15.1839 10.9071 14.6213 10.3445C14.0587 9.78189 13.2956 9.46582 12.5 9.46582Z" fill="white"/>
</svg>
