<svg width="184" height="157" viewBox="0 0 184 157" fill="none" xmlns="http://www.w3.org/2000/svg">
<path d="M45.9706 114.493C50.179 117.222 54.2888 119.893 58.6205 122.697C57.9876 123.182 57.519 123.568 57.0259 123.913C56.0149 124.628 56.0066 124.76 56.8944 125.672C62.4672 131.377 69.0757 133.104 76.7199 130.818C79.794 129.898 82.7284 128.689 85.0299 126.322C86.4272 124.883 87.282 123.206 87.3806 121.184C87.4793 119.228 87.5697 117.263 87.5779 115.298C87.5779 114.443 87.8574 114.147 88.6793 114.263C89.0081 114.312 89.3451 114.287 89.6821 114.279C91.4329 114.254 91.4493 113.95 91.4493 116.096C91.4576 127.588 91.474 139.071 91.4822 150.564C91.4822 151.139 91.4822 151.714 91.4822 152.61C88.8273 149.766 85.9011 147.925 82.7448 146.437C78.035 144.217 73.0293 142.853 68.0565 141.365C62.6727 139.762 57.4779 137.715 53.0312 134.148C51.2311 132.701 49.5872 131.098 48.5186 129.01C48.1323 128.254 47.483 128.278 46.809 128.286C44.2938 128.328 44.7541 128.311 44.8856 126.272C45.1322 122.573 45.5103 118.891 45.8308 115.2C45.8473 115.019 45.9048 114.846 45.987 114.484L45.9706 114.493Z" fill="white"/>
<path d="M94.3101 152.15C94.269 151.468 94.2197 150.999 94.2197 150.539C94.2197 139.162 94.2279 127.777 94.2362 116.4C94.2362 115.956 94.2197 115.504 94.2855 115.068C94.3184 114.846 94.5156 114.484 94.6554 114.476C95.6088 114.427 96.5705 114.402 97.5158 114.501C97.6719 114.517 97.861 115.159 97.8774 115.512C97.9596 117.362 98.0007 119.211 98.0418 121.061C98.1076 124.02 99.6117 126.248 101.913 127.818C106.804 131.155 112.253 132.635 118.147 131.55C122.125 130.818 125.298 128.492 128.019 125.549C128.536 124.99 128.471 124.497 127.912 124.037C127.657 123.823 127.386 123.634 127.123 123.42C126.901 123.239 126.679 123.042 126.292 122.713C130.295 120.025 134.208 117.403 138.268 114.682C138.408 115.282 138.523 115.594 138.548 115.915C138.819 119.647 139.049 123.379 139.353 127.111C139.427 128.015 139.107 128.385 138.252 128.245C136.764 128.007 136.016 128.689 135.194 129.939C133.394 132.668 130.945 134.756 128.068 136.425C125.265 138.052 122.363 139.4 119.314 140.436C116.873 141.275 114.366 141.932 111.916 142.746C106.245 144.612 100.639 146.61 96.0116 150.588C95.4855 151.04 95.0006 151.525 94.3101 152.166V152.15Z" fill="#FECC2B"/>
<path d="M58.3982 84.9489C58.4475 84.4557 58.5297 83.9624 58.5297 83.4692C58.5626 77.3533 58.6037 71.2292 58.5708 65.1132C58.5708 64.0035 58.8749 63.5842 60.0092 63.6665C61.3408 63.7569 62.6806 63.724 64.0121 63.6911C64.7766 63.6665 65.0725 63.9542 65.0642 64.7187C65.0478 67.2752 65.0807 69.8317 65.0807 72.3964C65.0889 79.0713 65.1464 85.7463 65.0642 92.4212C65.0478 93.8268 64.8012 95.3394 64.2258 96.5971C63.1737 98.907 60.5846 99.4002 58.6448 97.7644C57.8146 97.0656 57.1324 96.1285 56.5899 95.1832C53.4418 89.7249 50.3595 84.2337 47.2525 78.7508C46.9401 78.1918 46.5703 77.6657 46.2333 77.1231L45.9374 77.2053C45.9127 77.6246 45.8716 78.0356 45.8716 78.4548C45.8716 84.6118 45.8716 90.7689 45.8716 96.9177C45.8716 97.8877 45.3839 98.3782 44.4085 98.3891C43.077 98.3973 41.7372 98.3234 40.4056 98.422C39.2877 98.5042 38.9343 98.1589 38.9425 97.0163C38.9918 90.3085 38.9672 83.5925 38.9672 76.8847C38.9672 74.0652 38.959 71.2456 38.959 68.4342C38.959 65.4338 39.5672 64.357 41.5728 63.7815C43.7921 63.1486 46.6114 64.209 47.795 66.1819C48.5347 67.4231 49.1923 68.7055 49.8827 69.9797C52.4637 74.7392 55.0364 79.4906 57.6173 84.2501C57.7571 84.505 57.9297 84.7352 58.0858 84.9735C58.1927 84.9735 58.2913 84.9571 58.3982 84.9489Z" fill="white"/>
<path d="M151.024 98.3974C151.493 96.9095 151.879 95.6107 152.307 94.3283C155.249 85.4257 158.192 76.5313 161.151 67.6369C161.636 66.1655 162.326 64.8091 163.855 64.135C166.263 63.0746 168.647 63.9377 169.773 66.4285C170.579 68.2123 171.146 70.103 171.762 71.9608C174.508 80.2633 177.237 88.5658 179.965 96.8766C180.113 97.3205 180.171 97.7808 180.302 98.3809C178.042 98.3809 175.938 98.4138 173.842 98.3398C173.546 98.3316 173.143 97.8466 173.012 97.4931C172.272 95.5531 171.565 93.6049 170.924 91.632C170.628 90.7278 170.16 90.3003 169.173 90.325C166.806 90.3743 164.43 90.3661 162.055 90.3332C161.25 90.325 160.855 90.6785 160.608 91.4101C159.951 93.4158 159.211 95.3969 158.562 97.4109C158.332 98.1343 157.945 98.4056 157.197 98.3974C155.208 98.3645 153.227 98.3891 151.033 98.3891L151.024 98.3974ZM165.803 73.8515C165.54 74.2132 165.417 74.32 165.384 74.4433C164.496 77.7972 163.609 81.1593 162.729 84.5132C162.548 85.1873 162.926 85.3764 163.502 85.3764C164.94 85.3764 166.387 85.3435 167.825 85.401C168.844 85.4421 169.025 85.064 168.762 84.1433C167.907 81.1593 167.11 78.1589 166.288 75.1749C166.181 74.7968 166.025 74.4433 165.811 73.8515H165.803Z" fill="white"/>
<path d="M34.6933 98.3727C32.3507 98.3727 30.2137 98.4056 28.0848 98.3316C27.7971 98.3234 27.4108 97.8055 27.2793 97.4438C26.5395 95.4627 25.8326 93.4734 25.1833 91.4676C24.9121 90.6127 24.4271 90.3003 23.564 90.3168C21.1968 90.3497 18.8214 90.3497 16.4459 90.3168C15.5993 90.3085 15.1801 90.6785 14.9253 91.4594C14.2595 93.4652 13.5115 95.438 12.8458 97.4438C12.6074 98.159 12.2128 98.422 11.4649 98.4056C9.50862 98.3645 7.55237 98.3891 5.39062 98.3891C5.63721 97.5013 5.80982 96.7697 6.04819 96.0463C9.17984 86.5847 12.3115 77.1314 15.4678 67.678C16.0185 66.0257 16.7911 64.5214 18.657 63.9706C20.9667 63.2801 22.9722 64.0775 24.0408 66.2805C24.6326 67.5054 25.0271 68.8288 25.4628 70.1276C28.3478 78.8494 31.2164 87.5712 34.0851 96.3012C34.2906 96.9177 34.4549 97.5507 34.6933 98.3727ZM20.0872 73.8515C19.8652 74.2132 19.7091 74.3776 19.6598 74.5666C18.7885 77.8876 17.9337 81.2169 17.0624 84.5379C16.8816 85.2366 17.2432 85.3928 17.8186 85.3928C19.331 85.3928 20.8516 85.3928 22.364 85.4092C23.2188 85.4175 23.3339 85.0475 23.112 84.2913C22.2325 81.2004 21.4023 78.1014 20.5393 75.0023C20.4488 74.6653 20.2844 74.3529 20.0872 73.8515Z" fill="white"/>
<path d="M131.766 79.3097C133.427 78.4958 134.956 77.83 136.402 77.0162C137.898 76.1777 139.32 75.2242 139.624 73.3006C139.92 71.4181 138.613 69.5193 136.723 69.4042C134.725 69.2809 132.72 69.3631 130.723 69.3631C129.868 69.3631 129.827 69.9467 129.827 70.5879C129.843 78.9315 129.843 87.2752 129.884 95.6106C129.901 98.389 129.95 98.389 127.139 98.3973C126.325 98.3973 125.503 98.3808 124.689 98.4219C123.958 98.463 123.72 98.1589 123.728 97.4437C123.761 95.627 123.728 93.8103 123.728 91.9936C123.728 83.6911 123.728 75.3803 123.728 67.0778C123.728 65.0885 124.155 64.5295 126.128 64.1349C126.958 63.9705 127.821 63.9212 128.668 63.913C131.594 63.8965 134.528 63.9623 137.454 63.913C143.331 63.8061 146.841 68.4753 145.403 74.4761C144.671 77.5176 142.929 79.8522 139.97 81.0852C139.065 81.4634 139.065 81.9319 139.394 82.7129C141.392 87.4231 143.356 92.1416 145.329 96.8601C145.51 97.2875 145.649 97.7396 145.879 98.3726C143.759 98.3726 141.811 98.389 139.863 98.3479C139.641 98.3479 139.32 98.0602 139.23 97.8301C136.731 91.6895 134.265 85.5407 131.75 79.3014L131.766 79.3097Z" fill="white"/>
<path d="M118.237 81.332C118.237 84.1515 118.228 86.9629 118.237 89.7824C118.253 93.7035 116.215 96.7286 112.508 97.9699C109.294 99.0468 106.006 98.9974 102.767 98.0603C99.6111 97.1561 96.4548 93.6707 96.6438 89.618C96.9069 84.0364 96.8822 78.422 96.6603 72.8321C96.5041 68.9439 99.5042 65.6476 102.208 64.768C106.269 63.4527 110.42 63.165 114.234 65.4914C116.856 67.0861 118.475 69.4043 118.278 72.7664C118.105 75.6106 118.245 78.4713 118.245 81.3237L118.237 81.332ZM111.965 81.4224H111.982C111.982 78.6768 111.973 75.9394 111.982 73.1938C111.99 71.5498 111.192 70.4647 109.754 69.7906C108.168 69.0508 106.606 69.1083 105.044 69.9057C103.77 70.5551 103.063 71.5498 103.063 72.9965C103.063 78.5946 103.047 84.1926 103.055 89.7907C103.055 90.8675 103.532 91.7142 104.411 92.339C105.874 93.3747 107.469 93.6049 109.17 93.087C111.135 92.4869 111.957 91.3772 111.965 89.3221C111.982 86.6916 111.965 84.0611 111.965 81.4224Z" fill="white"/>
<path d="M92.3868 7.11877C92.3868 8.2203 92.3868 9.13275 92.3868 10.037C92.3868 12.2236 92.4361 14.4102 92.3457 16.5968C92.321 17.1229 91.984 17.7888 91.573 18.134C90.2333 19.252 89.888 20.074 90.7264 21.5948C91.4251 22.8607 91.5895 24.1513 91.5813 25.5405C91.5319 34.9199 91.5237 44.2993 91.4826 53.6787C91.4826 54.2377 91.4004 55.2077 91.1538 55.2734C90.3648 55.4954 89.4771 55.4296 88.6387 55.3639C88.4989 55.3556 88.3099 54.7638 88.3017 54.4432C88.277 52.7416 88.277 51.0318 88.3181 49.3301C88.3428 48.4506 88.0551 48.0642 87.1098 48.0724C83.5508 48.1135 79.9917 48.1135 76.4326 48.0889C75.5696 48.0889 75.1586 48.3026 75.1175 49.2562C75.0682 50.5221 74.6408 50.8345 73.3996 50.5139C70.5228 49.7576 68.2213 48.1218 66.6432 45.6063C65.4102 43.6417 65.7965 41.5537 67.8268 40.4111C69.9063 39.2438 72.2078 38.4711 74.4353 37.5751C74.6408 37.4929 75.1915 37.7477 75.2655 37.9614C75.7175 39.2931 76.4409 39.5726 77.9122 39.4493C80.6328 39.2191 83.3864 39.4493 86.1317 39.4904C86.5427 39.4904 86.9454 39.4904 87.3564 39.5069C88.2277 39.5562 88.4661 39.1452 88.4989 38.2985C88.6633 33.8266 87.8414 29.5356 86.3208 25.3515C85.6879 23.617 85.2029 21.8167 84.759 20.0247C84.6193 19.4739 84.6522 18.7094 84.9399 18.2491C87.2249 14.6157 89.5921 11.0234 91.9429 7.43115C91.9758 7.3736 92.058 7.34894 92.395 7.12699L92.3868 7.11877Z" fill="white"/>
<path d="M93.6852 7.56274C94.5318 8.83689 95.4031 10.1028 96.2251 11.4016C97.6635 13.6787 99.0937 15.9639 100.45 18.2985C100.713 18.7424 100.803 19.4411 100.664 19.9426C99.7019 23.4773 98.4526 26.9463 97.7046 30.5221C97.1539 33.1773 97.1867 35.9557 97.0224 38.6767C96.9813 39.4165 97.6059 39.4987 98.2142 39.4905C101.107 39.4658 103.993 39.4576 106.886 39.4412C107.182 39.4412 107.519 39.3672 107.765 39.474C108.965 40.0001 109.442 39.1781 109.73 38.3314C109.96 37.6738 110.313 37.4354 110.856 37.6491C112.87 38.4629 114.982 39.137 116.815 40.2632C119.503 41.9073 119.347 44.3487 117.44 46.675C115.927 48.5082 114.045 49.8317 111.702 50.44C110.593 50.7277 110.149 50.4893 110.083 49.3549C110.026 48.3931 109.582 48.0972 108.669 48.0972C105.258 48.1218 101.847 48.1054 98.4361 48.0807C97.5566 48.0807 97.1457 48.352 97.1785 49.3056C97.2361 50.9332 97.1374 52.569 97.2114 54.1966C97.2689 55.5694 96.3401 55.3886 95.5017 55.4544C94.6469 55.5119 94.1126 55.3475 94.1126 54.2789C94.1126 44.2336 94.0551 34.1884 94.0798 24.1431C94.0798 23.3787 94.5236 22.5977 94.8524 21.8661C95.6333 20.1563 95.4113 19.2356 93.9071 18.0354C93.6441 17.8217 93.3564 17.4436 93.3482 17.1394C93.3071 13.9993 93.3236 10.8591 93.3236 7.71893C93.4386 7.66961 93.5619 7.62851 93.677 7.57919L93.6852 7.56274Z" fill="#FECC2B"/>
<path d="M91.1858 88.8535C91.3667 92.8568 89.394 97.8629 83.0485 98.5781C79.3086 98.9973 75.7166 98.4219 72.5932 96.1038C70.6863 94.6899 69.7821 92.8157 69.8232 90.366C69.9136 84.398 69.9383 78.4301 69.8232 72.4621C69.7657 69.5275 70.9904 67.4395 73.3823 66.0092C77.2537 63.6993 81.4128 63.2389 85.6787 64.6857C88.9337 65.7955 91.2598 69.3631 91.2598 72.8156C91.2598 73.5719 90.9639 73.7774 90.2735 73.7609C89.0898 73.7281 87.898 73.7116 86.7144 73.7692C85.876 73.8103 85.4979 73.539 85.2513 72.6841C84.265 69.3548 79.8757 68.0889 77.303 70.4317C76.6866 70.9907 76.1687 72.0018 76.1523 72.8156C76.0536 78.4876 76.0701 84.1597 76.1358 89.8317C76.1441 90.5386 76.5057 91.3853 76.9907 91.9114C79.4072 94.5501 84.191 93.4815 85.2267 90.0618C85.5226 89.0754 85.9829 88.7877 86.9363 88.837C88.3337 88.9028 89.731 88.8535 91.194 88.8535H91.1858Z" fill="white"/>
<path d="M29.5725 61.562C27.4765 61.562 25.5943 61.5949 23.712 61.5373C23.3668 61.5291 22.9722 61.2332 22.7092 60.9619C22.0188 60.2467 21.3612 59.4822 20.7365 58.7095C20.268 58.1341 19.7913 57.8875 19.3967 58.6931C17.5391 62.4827 14.1773 61.6113 10.7744 61.4716C11.5388 60.3865 12.1882 59.4329 12.8704 58.504C14.1033 56.8353 15.3198 55.1501 16.6267 53.5472C16.9473 53.1444 17.572 52.8156 18.0816 52.7745C19.4789 52.6676 20.9009 52.6923 22.2982 52.7662C22.7174 52.7909 23.2599 53.0293 23.5147 53.3581C25.4463 55.8406 27.3286 58.3643 29.2191 60.8797C29.3259 61.0194 29.3835 61.1921 29.5725 61.5702V61.562Z" fill="white"/>
<path d="M126.834 105.927C126.974 106.585 127.401 107.398 127.163 107.851C126.9 108.352 126.028 108.763 125.396 108.804C122.93 108.96 122.93 108.903 122.913 106.453C122.913 106.009 122.856 105.557 122.913 105.13C122.995 104.521 123.152 103.403 123.291 103.403C124.401 103.387 125.634 103.321 126.587 103.782C127.524 104.225 126.924 105.187 126.415 105.878C126.555 105.894 126.686 105.911 126.826 105.927H126.834ZM124.927 108.253C125.642 108.229 126.456 108.171 126.415 107.218C126.374 106.207 125.486 106.264 124.746 106.215C124.039 106.174 123.678 106.371 123.678 107.193C123.678 108.138 124.13 108.336 124.935 108.245L124.927 108.253ZM124.796 105.623C124.861 105.705 124.927 105.787 124.993 105.878C125.396 105.524 126.094 105.204 126.144 104.809C126.234 103.987 125.478 103.913 124.812 103.921C124.261 103.93 123.694 103.856 123.678 104.719C123.661 105.565 124.097 105.722 124.796 105.623Z" fill="white"/>
<path d="M76.4237 109.059C75.6182 109.01 74.5825 109.01 73.5633 108.87C72.1742 108.689 71.4016 107.333 71.6153 105.623C71.8208 103.971 72.8071 103.091 74.3442 103.182C75.8237 103.264 76.769 104.39 76.7443 106.092C76.7443 106.494 76.5881 106.889 76.547 107.292C76.4895 107.859 76.4648 108.426 76.4237 109.059ZM74.3113 107.604C74.8538 107.473 75.3963 107.505 75.6347 107.251C76.1771 106.675 75.9881 105.105 75.3881 104.464C74.8291 103.872 74.188 103.642 73.4072 104.094C72.5523 104.595 72.1578 105.886 72.5605 107.037C72.8564 107.875 73.3907 108.393 74.4264 108.229C74.3688 107.941 74.3277 107.703 74.3113 107.604Z" fill="white"/>
<path d="M25.7337 105.335C25.6762 106.486 25.6186 107.637 25.5693 108.788C25.4132 108.788 25.257 108.788 25.1008 108.78C25.0679 108.303 25.0022 107.826 25.0022 107.357C25.0022 106.322 24.9857 105.286 25.0433 104.25C25.0597 103.946 25.2899 103.65 25.4214 103.354C25.6926 103.568 26.0378 103.724 26.2187 104.004C26.8269 104.957 27.3858 105.944 27.953 106.922C28.0763 106.905 28.1914 106.889 28.3147 106.872C28.3475 106.034 28.3475 105.195 28.4215 104.357C28.4462 104.028 28.6188 103.716 28.7256 103.403C28.8736 103.724 29.1284 104.036 29.1448 104.357C29.1941 105.574 29.1777 106.798 29.1366 108.015C29.1284 108.295 28.8982 108.558 28.7667 108.829C28.4955 108.673 28.1256 108.582 27.9694 108.352C27.3119 107.341 26.7201 106.289 26.1036 105.253C25.9803 105.278 25.857 105.311 25.7337 105.335Z" fill="white"/>
<path d="M45.6584 106.412C46.1762 107.201 46.6365 107.9 47.0968 108.591C47.0146 108.697 46.9324 108.804 46.8502 108.911C46.5214 108.689 46.1433 108.525 45.8885 108.245C45.494 107.81 45.2474 107.234 44.8282 106.831C44.5734 106.585 44.1213 106.42 43.7761 106.445C43.6199 106.453 43.4555 107.012 43.3898 107.349C43.2994 107.826 43.2994 108.319 43.2665 108.812C43.1432 108.829 43.0199 108.854 42.9048 108.87C42.798 108.615 42.6089 108.369 42.6089 108.114C42.5925 106.782 42.6418 105.442 42.6089 104.11C42.6007 103.469 42.8637 103.239 43.4638 103.272C44.0967 103.305 44.7214 103.33 45.3543 103.346C46.0365 103.362 46.7434 103.551 46.7598 104.3C46.7762 104.875 46.4064 105.467 46.1598 106.034C46.1022 106.182 45.8803 106.256 45.6584 106.412ZM44.4665 105.812C45.1159 105.722 46.02 105.894 46.02 104.875C46.02 103.971 45.2474 103.962 44.5652 103.946C43.9405 103.93 43.3816 103.921 43.3733 104.809C43.3733 105.59 43.7268 105.878 44.4665 105.804V105.812Z" fill="white"/>
<path d="M143.635 106.009C143.635 105.565 143.635 105.121 143.635 104.678C143.635 103.729 144.129 103.266 145.115 103.288C147.573 103.346 148.847 105.68 147.605 107.859C147.137 108.689 146.356 108.845 145.518 108.837C143.315 108.821 143.594 109.084 143.602 107.004C143.602 106.675 143.602 106.338 143.602 106.009H143.627H143.635ZM147.203 105.73C147.145 105.541 147.12 104.867 146.792 104.628C146.282 104.258 145.559 104.102 144.918 104.053C144.77 104.045 144.457 104.826 144.408 105.261C144.326 105.952 144.424 106.659 144.408 107.357C144.392 108.031 144.72 108.262 145.353 108.262C146.603 108.262 147.211 107.555 147.203 105.722V105.73Z" fill="white"/>
<path d="M41.3183 106.133C41.3018 107.974 40.4388 108.911 38.7702 108.919C37.151 108.919 36.1564 107.851 36.1893 106.141C36.2221 104.308 37.2003 103.198 38.7784 103.19C40.3977 103.19 41.3347 104.267 41.3183 106.133ZM40.5621 106.067C40.5621 104.85 39.8141 103.888 38.836 103.856C37.8661 103.823 37.0194 104.858 37.003 106.1C36.9866 107.283 37.7674 108.262 38.7455 108.295C39.7648 108.327 40.5538 107.366 40.5621 106.067Z" fill="white"/>
<path d="M155.044 106.067C155.044 105.845 154.978 105.59 155.052 105.409C155.356 104.702 154.254 103.387 155.931 103.288C158.389 103.157 159.186 103.675 159.425 105.491C159.77 108.147 158.019 109.626 155.446 108.812C155.257 108.755 155.06 108.401 155.035 108.171C154.986 107.473 155.019 106.766 155.019 106.067H155.044ZM155.833 106.026C155.833 106.396 155.865 106.766 155.833 107.136C155.718 108.212 156.326 108.393 157.197 108.27C158.446 108.089 159.038 106.659 158.529 105.064C158.266 104.234 157.46 103.806 156.49 103.971C155.586 104.119 155.89 104.826 155.841 105.368C155.824 105.59 155.841 105.812 155.841 106.034L155.833 106.026Z" fill="white"/>
<path d="M89.4104 104.727C89.1145 104.546 88.8268 104.332 88.5144 104.201C88.1281 104.045 87.7007 103.856 87.3062 103.88C87.0596 103.897 86.6979 104.258 86.6568 104.505C86.6239 104.711 86.9281 105.089 87.1664 105.212C87.6596 105.459 88.2103 105.582 88.7364 105.763C89.5337 106.034 89.9775 106.56 89.8707 107.431C89.772 108.278 89.2295 108.763 88.4158 108.87C87.4788 109.002 86.5335 108.977 85.9171 108.089C85.7855 107.9 85.8595 107.555 85.8431 107.283C86.0814 107.366 86.3527 107.415 86.5582 107.555C86.7965 107.711 86.9445 108.04 87.1911 108.147C87.8733 108.426 88.572 108.377 88.909 107.645C89.2706 106.856 88.5884 106.634 88.0295 106.42C87.5856 106.248 87.0103 106.248 86.6897 105.952C86.2952 105.598 85.8102 104.974 85.876 104.554C85.9582 104.069 86.5335 103.486 87.0267 103.297C88.1856 102.845 89.1967 103.387 89.4021 104.719L89.4104 104.727Z" fill="white"/>
<path d="M66.4287 106.946C66.8808 107.357 67.0945 107.67 67.3822 107.785C67.8918 107.99 68.4507 108.171 68.9932 108.163C69.2151 108.163 69.5604 107.67 69.6097 107.366C69.6426 107.136 69.3549 106.741 69.1083 106.609C68.6973 106.387 68.2041 106.322 67.7438 106.166C66.9876 105.911 66.3794 105.491 66.4616 104.587C66.5438 103.642 67.2096 103.288 68.0644 103.198C69.2809 103.066 69.9796 103.51 70.2015 104.768C69.7987 104.554 69.5357 104.382 69.248 104.275C68.8288 104.119 68.385 103.913 67.9493 103.913C67.7192 103.913 67.3411 104.291 67.3 104.538C67.2671 104.743 67.5877 105.105 67.8343 105.237C68.2863 105.467 68.8042 105.574 69.2973 105.738C70.1604 106.018 70.5714 106.601 70.4727 107.505C70.3741 108.377 69.7905 108.78 68.985 108.903C67.4233 109.149 66.4862 108.566 66.4287 106.955V106.946Z" fill="white"/>
<path d="M100.606 104.891C100.121 104.579 99.8912 104.373 99.62 104.275C99.1761 104.119 98.6994 103.946 98.2391 103.962C98.0418 103.962 97.8528 104.415 97.6555 104.653C98.0582 104.941 98.4281 105.269 98.8638 105.5C99.2172 105.689 99.6611 105.697 100.023 105.878C100.943 106.33 101.28 107.744 100.483 108.286C99.8583 108.714 98.9213 108.854 98.124 108.845C97.3431 108.845 96.85 108.221 96.8417 107.177C97.113 107.341 97.3842 107.53 97.6719 107.678C98.1158 107.9 98.5679 108.237 99.0199 108.237C99.3487 108.237 99.8665 107.818 99.9405 107.497C100.006 107.226 99.6282 106.741 99.3158 106.527C99.0035 106.305 98.5432 106.313 98.1569 106.182C97.3596 105.911 96.7267 105.475 96.8582 104.513C96.9897 103.576 97.6884 103.255 98.535 103.198C99.7432 103.116 100.343 103.519 100.598 104.891H100.606Z" fill="white"/>
<path d="M164.365 106.223C163.773 106.223 163.173 106.256 162.581 106.223C161.751 106.165 161.603 106.626 161.595 107.325C161.579 108.073 161.94 108.295 162.623 108.262C163.28 108.229 163.938 108.262 164.595 108.262C164.62 108.385 164.645 108.508 164.669 108.632C164.275 108.706 163.88 108.837 163.477 108.854C160.79 108.96 160.79 108.952 160.79 106.322C160.79 106.141 160.773 105.952 160.79 105.771C160.864 104.982 160.814 103.568 161.053 103.519C162.179 103.28 163.379 103.412 164.554 103.412C164.554 103.56 164.571 103.708 164.579 103.847C163.938 103.897 163.288 103.872 162.672 104.012C162.294 104.102 161.776 104.365 161.661 104.678C161.455 105.212 161.685 105.689 162.433 105.648C163.075 105.615 163.716 105.648 164.357 105.648C164.357 105.845 164.365 106.05 164.373 106.248L164.365 106.223Z" fill="white"/>
<path d="M53.0308 108.911C51.7896 108.689 51.6663 107.407 50.4087 107.39C49.0936 107.374 49.0525 108.73 47.7949 108.936C48.1895 107.867 48.5182 106.996 48.8388 106.124C49.1183 105.36 49.3813 104.587 49.6936 103.839C49.9649 103.173 50.6882 103.017 50.943 103.593C51.6663 105.261 52.2828 106.988 53.0308 108.919V108.911ZM49.406 106.856C50.1622 106.815 50.6635 106.79 51.3458 106.757C51.0252 105.878 50.7868 105.204 50.5403 104.538C50.4252 104.554 50.3183 104.563 50.2032 104.579C49.9731 105.245 49.7347 105.903 49.406 106.856Z" fill="white"/>
<path d="M23.9424 108.845C23.1369 108.64 19.3805 108.632 18.8545 108.886C18.9942 108.377 19.0682 108.015 19.1915 107.678C19.6436 106.429 20.0956 105.171 20.597 103.938C20.7039 103.683 21.008 103.404 21.271 103.346C21.4683 103.297 21.8711 103.527 21.9533 103.732C22.619 105.36 23.2355 107.02 23.9424 108.845ZM22.0108 106.905C22.093 106.799 22.1752 106.683 22.2492 106.577C21.9615 105.903 21.682 105.22 21.3943 104.546C21.2546 104.563 21.1231 104.587 20.9834 104.604C20.8518 105.286 20.7203 105.976 20.5888 106.659C21.0573 106.741 21.5341 106.823 22.0026 106.905H22.0108Z" fill="white"/>
<path d="M78.5773 103.338C78.6349 103.658 78.7335 103.987 78.7417 104.316C78.7746 105.204 78.7253 106.092 78.7828 106.971C78.8403 107.769 79.276 108.286 80.139 108.278C81.0021 108.278 81.2733 107.678 81.298 106.946C81.3309 105.985 81.2898 105.023 81.3473 104.069C81.3637 103.823 81.635 103.593 81.7912 103.354C81.898 103.593 82.1035 103.831 82.1117 104.069C82.1364 105.138 82.161 106.215 82.0953 107.284C82.0213 108.459 81.4459 108.911 80.1801 108.928C78.8321 108.944 78.1417 108.5 78.0677 107.358C77.9855 106.026 78.0513 104.694 78.0513 103.354C78.2321 103.354 78.4129 103.346 78.5938 103.338H78.5773Z" fill="white"/>
<path d="M108.25 108.804C107.099 108.804 105.94 108.829 104.789 108.771C104.666 108.771 104.461 108.319 104.452 108.081C104.42 106.749 104.42 105.409 104.461 104.078C104.469 103.814 104.732 103.362 104.896 103.346C105.973 103.28 107.058 103.313 108.135 103.313C108.143 103.486 108.151 103.65 108.159 103.823C107.494 103.872 106.828 103.938 106.162 103.954C105.62 103.971 105.217 104.053 105.217 104.735C105.217 105.319 105.365 105.656 106.031 105.623C106.663 105.59 107.296 105.623 107.929 105.623C107.929 105.796 107.929 105.96 107.938 106.133C107.362 106.157 106.787 106.231 106.22 106.207C105.521 106.182 105.2 106.42 105.192 107.152C105.192 107.867 105.373 108.295 106.187 108.253C106.869 108.221 107.551 108.253 108.225 108.253C108.225 108.443 108.233 108.632 108.242 108.812L108.25 108.804Z" fill="white"/>
<path d="M95.8553 108.919C94.6059 108.722 94.5813 107.357 93.2579 107.374C92.0003 107.39 91.8853 108.623 90.6523 108.96C91.4003 106.971 92.0168 105.261 92.7237 103.593C92.773 103.469 93.7675 103.51 93.8415 103.675C94.5402 105.319 95.1402 107.012 95.8635 108.928L95.8553 108.919ZM93.3812 104.521C93.2662 104.521 93.1511 104.538 93.0278 104.546C92.8141 105.245 92.5922 105.935 92.3291 106.782H94.2032C93.8991 105.944 93.636 105.228 93.3812 104.521Z" fill="white"/>
<path d="M64.8092 106.124C64.2421 106.157 63.6749 106.24 63.116 106.207C62.3845 106.174 62.0146 106.412 62.0146 107.201C62.0146 107.949 62.3023 108.295 63.0749 108.245C63.7571 108.204 64.4394 108.245 65.1216 108.245C65.138 108.393 65.1545 108.541 65.1709 108.689C64.7188 108.747 64.275 108.837 63.8229 108.845C61.3077 108.878 61.3077 108.87 61.2666 106.412C61.2584 105.631 61.2337 104.858 61.2666 104.078C61.2831 103.831 61.4721 103.379 61.6036 103.379C62.7297 103.321 63.864 103.346 64.9901 103.346C64.9983 103.502 65.0065 103.658 65.0229 103.806C64.6284 103.864 64.2174 103.88 63.8311 103.987C63.19 104.152 62.0886 103.445 62.0557 104.793C62.0146 106.207 63.1489 105.459 63.7736 105.623C64.1024 105.705 64.4558 105.689 64.7928 105.713C64.7928 105.853 64.7928 105.993 64.7928 106.133L64.8092 106.124Z" fill="white"/>
<path d="M148.806 108.903C149.537 106.979 150.113 105.311 150.811 103.691C151.066 103.091 151.74 103.066 152.003 103.667C152.718 105.302 153.302 106.996 154.017 108.886C152.792 108.722 152.669 107.374 151.378 107.382C150.104 107.39 150.063 108.738 148.806 108.903ZM151.625 104.563C151.485 104.563 151.337 104.563 151.198 104.571C150.976 105.27 150.745 105.968 150.482 106.799H152.381C152.102 105.96 151.863 105.261 151.625 104.563Z" fill="white"/>
<path d="M121.121 103.354C121.187 103.576 121.294 103.798 121.302 104.02C121.319 105.023 121.327 106.026 121.302 107.02C121.261 108.385 120.735 108.895 119.395 108.919C117.94 108.944 117.316 108.467 117.234 107.135C117.168 106.067 117.176 104.99 117.201 103.913C117.201 103.724 117.447 103.543 117.579 103.354C117.702 103.543 117.916 103.732 117.924 103.93C117.965 104.858 117.932 105.779 117.965 106.708C117.998 107.563 118.286 108.27 119.305 108.27C120.382 108.27 120.53 107.505 120.53 106.659C120.53 105.845 120.53 105.023 120.579 104.209C120.595 103.905 120.743 103.609 120.826 103.305C120.924 103.313 121.023 103.321 121.121 103.338V103.354Z" fill="white"/>
<path d="M55.9575 106.083C55.9575 105.639 55.9575 105.195 55.9575 104.76C55.9575 104.004 55.7191 103.214 57.026 103.264C59.2946 103.346 59.8864 103.609 59.9111 104.908C59.9275 106.042 59.4261 106.585 58.0699 106.552C56.9767 106.527 56.6068 106.913 56.7219 107.966C56.7465 108.229 56.5246 108.525 56.4178 108.804C56.2616 108.525 56.015 108.253 55.9821 107.966C55.9164 107.349 55.9575 106.716 55.9657 106.091L55.9575 106.083ZM56.7548 105.006C56.6479 105.713 56.9356 106.059 57.6671 105.985C58.3411 105.911 59.0973 105.853 59.0562 104.949C59.0233 104.184 58.4151 103.979 57.7164 103.946C56.9191 103.905 56.6479 104.275 56.7465 105.015L56.7548 105.006Z" fill="white"/>
<path d="M34.6935 104.776C34.3894 104.604 34.1017 104.398 33.7812 104.275C33.3949 104.127 32.9263 103.872 32.5811 103.971C31.6276 104.242 31.3482 105.08 31.3153 105.976C31.2824 106.864 31.4797 107.703 32.3592 108.147C33.0167 108.475 33.551 108.212 34.0031 107.653C34.1675 107.448 34.5127 107.39 34.7757 107.267C34.71 107.588 34.7429 108.089 34.5538 108.188C33.9702 108.508 33.3127 108.837 32.6633 108.878C31.677 108.928 31.003 108.286 30.6988 107.366C30.2879 106.133 30.3947 104.908 31.266 103.913C31.9236 103.157 32.8688 102.96 33.8058 103.371C34.2579 103.568 34.6031 103.995 34.9977 104.324C34.899 104.472 34.7922 104.62 34.6935 104.776Z" fill="white"/>
<path d="M135.514 106.535C135.481 103.954 137.035 102.655 138.892 103.379C139.155 103.486 139.451 103.65 139.599 103.872C139.731 104.061 139.681 104.382 139.706 104.637C139.476 104.587 139.172 104.62 139.024 104.48C138.498 103.987 137.972 103.625 137.257 104.061C136.369 104.604 136.155 105.508 136.353 106.387C136.501 107.037 136.936 107.76 137.462 108.122C137.733 108.303 138.498 107.777 139.032 107.563C139.279 107.464 139.517 107.349 139.764 107.242C139.739 107.538 139.805 107.892 139.665 108.106C138.851 109.339 136.632 109.158 135.917 107.785C135.67 107.308 135.58 106.741 135.522 106.535H135.514Z" fill="white"/>
<path d="M111.892 106.059C111.892 105.911 111.892 105.763 111.892 105.615C111.883 103.223 112.599 102.672 114.908 103.453C115.311 103.584 115.763 104.226 115.788 104.653C115.812 105.187 115.459 105.763 115.179 106.272C115.089 106.437 114.711 106.535 114.481 106.519C113.24 106.437 112.516 106.823 112.689 108.229C112.705 108.385 112.418 108.582 112.278 108.755C112.155 108.558 111.949 108.36 111.933 108.155C111.892 107.456 111.916 106.757 111.916 106.059C111.916 106.059 111.908 106.059 111.9 106.059H111.892ZM113.856 106.19C114.251 105.804 114.933 105.45 114.982 105.023C115.073 104.234 114.366 103.979 113.626 103.946C112.862 103.913 112.705 104.349 112.705 104.99C112.705 105.648 112.894 106.075 113.848 106.19H113.856Z" fill="white"/>
<path d="M129.481 103.412C129.481 104.193 129.481 104.965 129.481 105.746C129.492 107.33 130.273 108.169 131.824 108.262C131.963 108.27 132.095 108.328 132.235 108.36C132.251 108.475 132.259 108.591 132.276 108.706C131.766 108.755 131.256 108.829 130.747 108.845C128.289 108.895 128.758 109.01 128.725 106.897C128.708 106.009 128.725 105.122 128.749 104.234C128.758 103.946 128.865 103.667 128.922 103.387C129.111 103.395 129.3 103.412 129.489 103.42L129.481 103.412Z" fill="white"/>
<path d="M141.391 106.091C141.391 105.352 141.367 104.62 141.408 103.888C141.416 103.699 141.663 103.535 141.802 103.354C141.926 103.543 142.164 103.724 142.164 103.913C142.197 105.343 142.197 106.782 142.164 108.221C142.164 108.418 141.934 108.615 141.802 108.804C141.654 108.599 141.4 108.401 141.383 108.188C141.326 107.489 141.367 106.79 141.367 106.091H141.391Z" fill="white"/>
<path d="M133.624 108.837C133.558 108.607 133.443 108.385 133.443 108.155C133.435 106.79 133.426 105.426 133.476 104.061C133.484 103.806 133.739 103.568 133.887 103.321C133.993 103.56 134.199 103.79 134.199 104.028C134.232 105.352 134.224 106.683 134.199 108.007C134.199 108.295 134.067 108.574 133.993 108.854C133.87 108.854 133.747 108.837 133.624 108.829V108.837Z" fill="white"/>
<path d="M83.9038 108.845C83.8216 108.599 83.6818 108.36 83.6818 108.114C83.6572 106.749 83.649 105.376 83.6818 104.012C83.6818 103.773 83.9777 103.543 84.1339 103.305C84.249 103.543 84.4545 103.773 84.4627 104.012C84.4956 105.269 84.5038 106.527 84.4791 107.785C84.4791 108.138 84.3147 108.492 84.2243 108.854C84.1175 108.854 84.0106 108.854 83.8956 108.854L83.9038 108.845Z" fill="white"/>
</svg>
