<svg width="35" height="36" viewBox="0 0 35 36" fill="none" xmlns="http://www.w3.org/2000/svg">
<path d="M33.1462 24.5091V31.7672C33.1519 32.3008 33.0414 32.8293 32.8225 33.3163C32.6035 33.8033 32.2812 34.2373 31.8778 34.5883C31.4744 34.9393 30.9994 35.1991 30.4855 35.3497C29.9717 35.5004 29.4312 35.5383 28.9013 35.4609C21.555 34.5207 14.7315 31.1719 9.50597 25.9423C4.28044 20.7127 0.949919 13.8994 0.0391898 6.57615C-0.0382546 6.0497 -0.000628754 5.5128 0.149493 5.00218C0.299615 4.49157 0.558689 4.0193 0.908985 3.61768C1.25928 3.21606 1.69253 2.89459 2.17909 2.67525C2.66564 2.45591 3.19401 2.3439 3.72805 2.34686H10.9019C11.3601 2.34409 11.8032 2.51054 12.1455 2.81408C12.4878 3.11763 12.7052 3.53675 12.7556 3.99056C12.9395 6.41099 13.5678 8.77723 14.6092 10.9717C14.7878 11.3872 14.8072 11.8537 14.6637 12.2825C14.5202 12.7114 14.2238 13.073 13.8307 13.2987L12.2365 14.2036C12.0067 14.3296 11.8064 14.5026 11.6487 14.7114C11.491 14.9201 11.3796 15.1599 11.3217 15.4147C11.2639 15.6696 11.2611 15.9337 11.3133 16.1898C11.3655 16.4458 11.4717 16.6879 11.6248 16.9C13.4587 19.5765 15.7786 21.8878 18.4649 23.7149C18.6779 23.8674 18.9208 23.9732 19.1778 24.0253C19.4348 24.0773 19.7 24.0745 19.9558 24.0168C20.2116 23.9592 20.4522 23.8482 20.6617 23.6911C20.8713 23.534 21.045 23.3344 21.1713 23.1055L22.0796 21.5172C22.3197 21.1203 22.7008 20.8279 23.1471 20.6979C23.5935 20.5679 24.0726 20.6098 24.4895 20.8154C26.692 21.853 29.067 22.4789 31.4964 22.6622C31.9519 22.7124 32.3726 22.929 32.6773 23.27C32.9819 23.6111 33.149 24.0525 33.1462 24.5091Z" fill="#FECC2B"/>
<path d="M33.1463 15.2748C32.6547 15.2748 32.1832 15.0802 31.8355 14.7339C31.4879 14.3875 31.2926 13.9178 31.2926 13.428C31.2926 10.9789 30.3161 8.63011 28.5779 6.89835C26.8397 5.16659 24.4823 4.1937 22.0241 4.1937C21.5325 4.1937 21.061 3.99912 20.7133 3.65277C20.3657 3.30642 20.1704 2.83667 20.1704 2.34685C20.1704 1.85704 20.3657 1.38728 20.7133 1.04093C21.061 0.694578 21.5325 0.5 22.0241 0.5C25.4655 0.5 28.766 1.86205 31.1994 4.28651C33.6329 6.71097 35 9.99924 35 13.428C35 13.9178 34.8047 14.3875 34.4571 14.7339C34.1094 15.0802 33.6379 15.2748 33.1463 15.2748Z" fill="#FECC2B"/>
<path d="M25.7315 15.2749C25.2399 15.2749 24.7684 15.0803 24.4207 14.7339C24.0731 14.3876 23.8778 13.9178 23.8778 13.428C23.8778 12.9382 23.6825 12.4684 23.3349 12.1221C22.9872 11.7757 22.5157 11.5812 22.0241 11.5812C21.5325 11.5812 21.061 11.3866 20.7133 11.0402C20.3657 10.6939 20.1704 10.2241 20.1704 9.7343C20.1704 9.24449 20.3657 8.77473 20.7133 8.42838C21.061 8.08203 21.5325 7.88745 22.0241 7.88745C23.499 7.88745 24.9135 8.47119 25.9564 9.51024C26.9993 10.5493 27.5852 11.9586 27.5852 13.428C27.5852 13.9178 27.3899 14.3876 27.0423 14.7339C26.6946 15.0803 26.2231 15.2749 25.7315 15.2749Z" fill="#FECC2B"/>
</svg>
