<svg width="122" height="122" viewBox="0 0 122 122" fill="none" xmlns="http://www.w3.org/2000/svg">
<path d="M41.9375 87.6875C40.9264 87.6875 39.9566 87.2859 39.2417 86.5709C38.5267 85.8559 38.125 84.8862 38.125 83.875V38.125C38.1253 37.4754 38.2917 36.8367 38.6082 36.2694C38.9247 35.7021 39.381 35.2251 39.9336 34.8837C40.4863 34.5422 41.117 34.3477 41.766 34.3184C42.4149 34.2892 43.0606 34.4263 43.6417 34.7167L89.3917 57.5917C90.0241 57.9086 90.5559 58.3953 90.9275 58.9972C91.2991 59.5992 91.4959 60.2926 91.4959 61C91.4959 61.7075 91.2991 62.4009 90.9275 63.0028C90.5559 63.6048 90.0241 64.0914 89.3917 64.4084L43.6417 87.2834C43.1126 87.5484 42.5292 87.6868 41.9375 87.6875Z" fill="black"/>
<path d="M61 7.625C50.4434 7.625 40.1239 10.7554 31.3465 16.6203C22.569 22.4852 15.7278 30.8213 11.688 40.5743C7.64813 50.3273 6.59112 61.0592 8.65061 71.4129C10.7101 81.7667 15.7936 91.2772 23.2582 98.7418C30.7228 106.206 40.2333 111.29 50.5871 113.349C60.9408 115.409 71.6727 114.352 81.4257 110.312C91.1787 106.272 99.5148 99.431 105.38 90.6535C111.245 81.8761 114.375 71.5566 114.375 61C114.375 46.8441 108.752 33.2679 98.7418 23.2582C88.7321 13.2484 75.1559 7.625 61 7.625ZM89.3917 64.4122L43.6417 87.2872C43.0603 87.5777 42.4143 87.7148 41.765 87.6854C41.1158 87.656 40.4848 87.4611 39.932 87.1192C39.3793 86.7773 38.9231 86.2998 38.6068 85.732C38.2906 85.1642 38.1247 84.5249 38.125 83.875V38.125C38.1254 37.4754 38.2917 36.8366 38.6082 36.2693C38.9248 35.7021 39.381 35.2251 39.9337 34.8836C40.4863 34.5422 41.117 34.3476 41.766 34.3184C42.4149 34.2892 43.0606 34.4262 43.6417 34.7166L89.3917 57.5916C90.0241 57.9086 90.5559 58.3953 90.9275 58.9972C91.2991 59.5991 91.4959 60.2926 91.4959 61C91.4959 61.7074 91.2991 62.4009 90.9275 63.0028C90.5559 63.6047 90.0241 64.0914 89.3917 64.4084" fill="#FECC2B" fill-opacity="0.38"/>
</svg>
