<svg width="25" height="25" viewBox="0 0 25 25" fill="none" xmlns="http://www.w3.org/2000/svg">
<g clip-path="url(#clip0_296_328)">
<path d="M12.5 4.46582C13.355 4.46582 14.232 4.48782 15.082 4.52382L16.086 4.57182L17.047 4.62882L17.947 4.68982L18.769 4.75382C19.661 4.8221 20.5004 5.20277 21.1395 5.82886C21.7786 6.45495 22.1764 7.28636 22.263 8.17682L22.303 8.60182L22.378 9.51182C22.448 10.4548 22.5 11.4828 22.5 12.4658C22.5 13.4488 22.448 14.4768 22.378 15.4198L22.303 16.3298C22.29 16.4758 22.277 16.6168 22.263 16.7548C22.1764 17.6454 21.7784 18.477 21.1391 19.1031C20.4999 19.7292 19.6602 20.1098 18.768 20.1778L17.948 20.2408L17.048 20.3028L16.086 20.3598L15.082 20.4078C14.2218 20.4452 13.361 20.4645 12.5 20.4658C11.639 20.4645 10.7782 20.4452 9.918 20.4078L8.914 20.3598L7.953 20.3028L7.053 20.2408L6.231 20.1778C5.33895 20.1095 4.49955 19.7289 3.86047 19.1028C3.22139 18.4767 2.82357 17.6453 2.737 16.7548L2.697 16.3298L2.622 15.4198C2.54554 14.437 2.50484 13.4516 2.5 12.4658C2.5 11.4828 2.552 10.4548 2.622 9.51182L2.697 8.60182C2.71 8.45582 2.723 8.31482 2.737 8.17682C2.82354 7.28652 3.22122 6.45524 3.86009 5.82916C4.49897 5.20309 5.33813 4.82232 6.23 4.75382L7.051 4.68982L7.951 4.62882L8.913 4.57182L9.917 4.52382C10.7775 4.48645 11.6387 4.46712 12.5 4.46582ZM12.5 6.46582C11.675 6.46582 10.826 6.48782 10 6.52182L9.022 6.56882L8.083 6.62382L7.201 6.68382L6.393 6.74682C5.96833 6.77695 5.56804 6.95647 5.26309 7.25355C4.95814 7.55063 4.76822 7.94608 4.727 8.36982C4.61 9.57882 4.5 11.0838 4.5 12.4658C4.5 13.8478 4.61 15.3528 4.727 16.5618C4.812 17.4338 5.504 18.1118 6.393 18.1848L7.201 18.2468L8.083 18.3068L9.022 18.3628L10 18.4098C10.826 18.4438 11.675 18.4658 12.5 18.4658C13.325 18.4658 14.174 18.4438 15 18.4098L15.978 18.3628L16.917 18.3078L17.799 18.2478L18.607 18.1848C19.0317 18.1547 19.432 17.9752 19.7369 17.6781C20.0419 17.381 20.2318 16.9856 20.273 16.5618C20.39 15.3528 20.5 13.8478 20.5 12.4658C20.5 11.0838 20.39 9.57882 20.273 8.36982C20.2318 7.94608 20.0419 7.55063 19.7369 7.25355C19.432 6.95647 19.0317 6.77695 18.607 6.74682L17.799 6.68482L16.917 6.62482L15.978 6.56882L15 6.52182C14.1671 6.48599 13.3336 6.46732 12.5 6.46582ZM10.5 10.0408C10.4999 9.94308 10.5237 9.84681 10.5694 9.76037C10.615 9.67394 10.681 9.59995 10.7618 9.54486C10.8425 9.48976 10.9354 9.45521 11.0326 9.44423C11.1297 9.43324 11.228 9.44615 11.319 9.48182L11.4 9.52182L15.6 11.9458C15.6836 11.9941 15.7544 12.0618 15.8063 12.1433C15.8581 12.2247 15.8896 12.3175 15.8979 12.4137C15.9062 12.5099 15.8912 12.6067 15.8542 12.6958C15.8171 12.785 15.7591 12.8639 15.685 12.9258L15.6 12.9858L11.4 15.4108C11.3154 15.4598 11.22 15.4874 11.1223 15.4912C11.0246 15.4949 10.9274 15.4747 10.8393 15.4323C10.7511 15.3899 10.6747 15.3266 10.6166 15.2479C10.5585 15.1692 10.5205 15.0775 10.506 14.9808L10.5 14.8908V10.0408Z" fill="white"/>
</g>
<defs>
<clipPath id="clip0_296_328">
<rect width="24" height="24" fill="white" transform="translate(0.5 0.46582)"/>
</clipPath>
</defs>
</svg>
